<?xml version="1.0" encoding="utf-8" standalone="no"?>
<!DOCTYPE svg PUBLIC "-//W3C//DTD SVG 1.1//EN"
  "http://www.w3.org/Graphics/SVG/1.1/DTD/svg11.dtd">
<svg xmlns:xlink="http://www.w3.org/1999/xlink" width="568.397812pt" height="425.095312pt" viewBox="0 0 568.397812 425.095312" xmlns="http://www.w3.org/2000/svg" version="1.1">
 <metadata>
  <rdf:RDF xmlns:dc="http://purl.org/dc/elements/1.1/" xmlns:cc="http://creativecommons.org/ns#" xmlns:rdf="http://www.w3.org/1999/02/22-rdf-syntax-ns#">
   <cc:Work>
    <dc:type rdf:resource="http://purl.org/dc/dcmitype/StillImage"/>
    <dc:date>2024-12-30T07:47:20.973711</dc:date>
    <dc:format>image/svg+xml</dc:format>
    <dc:creator>
     <cc:Agent>
      <dc:title>Matplotlib v3.9.2, https://matplotlib.org/</dc:title>
     </cc:Agent>
    </dc:creator>
   </cc:Work>
  </rdf:RDF>
 </metadata>
 <defs>
  <style type="text/css">*{stroke-linejoin: round; stroke-linecap: butt}</style>
 </defs>
 <g id="figure_1">
  <g id="patch_1">
   <path d="M 0 425.095312 
L 568.397812 425.095312 
L 568.397812 0 
L 0 0 
L 0 425.095312 
z
" style="fill: none"/>
  </g>
  <g id="axes_1">
   <g id="patch_2">
    <path d="M 89.539062 373.705 
L 561.197812 373.705 
L 561.197812 7.2 
L 89.539062 7.2 
L 89.539062 373.705 
z
" style="fill: none"/>
   </g>
   <g id="matplotlib.axis_1">
    <g id="xtick_1">
     <g id="line2d_1">
      <path d="M 110.978097 373.705 
L 110.978097 7.2 
" clip-path="url(#p62afb0a5b2)" style="fill: none; stroke: #b0b0b0; stroke-width: 0.8; stroke-linecap: square"/>
     </g>
     <g id="line2d_2">
      <defs>
       <path id="me1cba059bd" d="M 0 0 
L 0 3.5 
" style="stroke: #000000; stroke-width: 0.8"/>
      </defs>
      <g>
       <use xlink:href="#me1cba059bd" x="110.978097" y="373.705" style="stroke: #000000; stroke-width: 0.8"/>
      </g>
     </g>
     <g id="text_1">
      <!-- 0 -->
      <g transform="translate(105.580909 393.04625) scale(0.18 -0.18)">
       <defs>
        <path id="WenQuanYiZenHei-30" d="M 3581 2175 
Q 3581 1288 3169 638 
Q 2713 -63 1938 -63 
Q 1025 -63 563 831 
Q 256 1425 256 2188 
Q 256 3188 700 3819 
Q 1138 4456 1888 4456 
Q 2863 4456 3306 3500 
Q 3581 2925 3581 2175 
z
M 3019 2100 
Q 3019 3356 2500 3806 
L 2350 3919 
Q 2144 4031 1888 4031 
Q 1100 4031 888 2956 
Q 819 2625 819 2225 
Q 819 1013 1338 569 
Q 1588 356 1938 356 
Q 2675 356 2925 1294 
Q 3019 1663 3019 2100 
z
" transform="scale(0.015625)"/>
       </defs>
       <use xlink:href="#WenQuanYiZenHei-30"/>
      </g>
     </g>
    </g>
    <g id="xtick_2">
     <g id="line2d_3">
      <path d="M 182.441544 373.705 
L 182.441544 7.2 
" clip-path="url(#p62afb0a5b2)" style="fill: none; stroke: #b0b0b0; stroke-width: 0.8; stroke-linecap: square"/>
     </g>
     <g id="line2d_4">
      <g>
       <use xlink:href="#me1cba059bd" x="182.441544" y="373.705" style="stroke: #000000; stroke-width: 0.8"/>
      </g>
     </g>
     <g id="text_2">
      <!-- 100 -->
      <g transform="translate(166.249981 393.04625) scale(0.18 -0.18)">
       <defs>
        <path id="WenQuanYiZenHei-31" d="M 3556 0 
L 488 0 
L 488 406 
L 1800 406 
L 1800 3725 
Q 1231 3125 588 2788 
L 588 3338 
Q 1456 3781 1931 4388 
L 2331 4388 
L 2331 406 
L 3556 406 
L 3556 0 
z
" transform="scale(0.015625)"/>
       </defs>
       <use xlink:href="#WenQuanYiZenHei-31"/>
       <use xlink:href="#WenQuanYiZenHei-30" x="59.960938"/>
       <use xlink:href="#WenQuanYiZenHei-30" x="119.921875"/>
      </g>
     </g>
    </g>
    <g id="xtick_3">
     <g id="line2d_5">
      <path d="M 253.904991 373.705 
L 253.904991 7.2 
" clip-path="url(#p62afb0a5b2)" style="fill: none; stroke: #b0b0b0; stroke-width: 0.8; stroke-linecap: square"/>
     </g>
     <g id="line2d_6">
      <g>
       <use xlink:href="#me1cba059bd" x="253.904991" y="373.705" style="stroke: #000000; stroke-width: 0.8"/>
      </g>
     </g>
     <g id="text_3">
      <!-- 200 -->
      <g transform="translate(237.713428 393.04625) scale(0.18 -0.18)">
       <defs>
        <path id="WenQuanYiZenHei-32" d="M 3488 0 
L 369 0 
L 369 456 
L 2150 1850 
Q 2931 2463 2931 3144 
Q 2931 3619 2488 3863 
Q 2231 4013 1931 4013 
Q 1425 4013 1113 3619 
Q 894 3356 881 3013 
L 369 3169 
Q 531 3981 1213 4300 
Q 1544 4456 1950 4456 
Q 2631 4456 3088 4044 
L 3225 3888 
L 3350 3706 
Q 3481 3444 3481 3144 
Q 3481 2313 2519 1569 
L 1069 456 
L 3488 456 
L 3488 0 
z
" transform="scale(0.015625)"/>
       </defs>
       <use xlink:href="#WenQuanYiZenHei-32"/>
       <use xlink:href="#WenQuanYiZenHei-30" x="59.960938"/>
       <use xlink:href="#WenQuanYiZenHei-30" x="119.921875"/>
      </g>
     </g>
    </g>
    <g id="xtick_4">
     <g id="line2d_7">
      <path d="M 325.368437 373.705 
L 325.368437 7.2 
" clip-path="url(#p62afb0a5b2)" style="fill: none; stroke: #b0b0b0; stroke-width: 0.8; stroke-linecap: square"/>
     </g>
     <g id="line2d_8">
      <g>
       <use xlink:href="#me1cba059bd" x="325.368437" y="373.705" style="stroke: #000000; stroke-width: 0.8"/>
      </g>
     </g>
     <g id="text_4">
      <!-- 300 -->
      <g transform="translate(309.176875 393.04625) scale(0.18 -0.18)">
       <defs>
        <path id="WenQuanYiZenHei-33" d="M 3588 1231 
Q 3588 494 2875 144 
Q 2450 -63 1925 -63 
Q 1044 -63 556 488 
Q 356 706 256 1000 
L 769 1169 
Q 994 375 1913 375 
Q 2631 375 2900 788 
Q 3019 975 3019 1231 
Q 3019 1638 2638 1881 
Q 2325 2081 1613 2069 
L 1338 2069 
L 1338 2494 
Q 1969 2494 2094 2506 
Q 2325 2544 2463 2613 
Q 2763 2756 2844 3100 
Q 2863 3169 2863 3244 
Q 2863 3744 2381 3944 
L 2163 4006 
Q 2056 4025 1931 4025 
Q 1388 4025 1075 3631 
Q 969 3488 906 3313 
L 419 3456 
Q 675 4150 1400 4369 
Q 1669 4456 1975 4456 
Q 2694 4456 3106 4050 
Q 3419 3744 3419 3275 
Q 3419 2813 3025 2513 
Q 2825 2356 2575 2319 
L 2575 2306 
Q 3181 2213 3450 1769 
Q 3588 1525 3588 1231 
z
" transform="scale(0.015625)"/>
       </defs>
       <use xlink:href="#WenQuanYiZenHei-33"/>
       <use xlink:href="#WenQuanYiZenHei-30" x="59.960938"/>
       <use xlink:href="#WenQuanYiZenHei-30" x="119.921875"/>
      </g>
     </g>
    </g>
    <g id="xtick_5">
     <g id="line2d_9">
      <path d="M 396.831884 373.705 
L 396.831884 7.2 
" clip-path="url(#p62afb0a5b2)" style="fill: none; stroke: #b0b0b0; stroke-width: 0.8; stroke-linecap: square"/>
     </g>
     <g id="line2d_10">
      <g>
       <use xlink:href="#me1cba059bd" x="396.831884" y="373.705" style="stroke: #000000; stroke-width: 0.8"/>
      </g>
     </g>
     <g id="text_5">
      <!-- 400 -->
      <g transform="translate(380.640322 393.04625) scale(0.18 -0.18)">
       <defs>
        <path id="WenQuanYiZenHei-34" d="M 3631 1025 
L 2913 1025 
L 2913 0 
L 2381 0 
L 2381 1025 
L 219 1025 
L 219 1388 
L 2225 4388 
L 2913 4388 
L 2913 1444 
L 3631 1444 
L 3631 1025 
z
M 2381 1444 
L 2381 3963 
L 788 1444 
L 2381 1444 
z
" transform="scale(0.015625)"/>
       </defs>
       <use xlink:href="#WenQuanYiZenHei-34"/>
       <use xlink:href="#WenQuanYiZenHei-30" x="59.960938"/>
       <use xlink:href="#WenQuanYiZenHei-30" x="119.921875"/>
      </g>
     </g>
    </g>
    <g id="xtick_6">
     <g id="line2d_11">
      <path d="M 468.295331 373.705 
L 468.295331 7.2 
" clip-path="url(#p62afb0a5b2)" style="fill: none; stroke: #b0b0b0; stroke-width: 0.8; stroke-linecap: square"/>
     </g>
     <g id="line2d_12">
      <g>
       <use xlink:href="#me1cba059bd" x="468.295331" y="373.705" style="stroke: #000000; stroke-width: 0.8"/>
      </g>
     </g>
     <g id="text_6">
      <!-- 500 -->
      <g transform="translate(452.103769 393.04625) scale(0.18 -0.18)">
       <defs>
        <path id="WenQuanYiZenHei-35" d="M 3531 1488 
Q 3531 688 2913 250 
Q 2456 -63 1844 -63 
Q 1175 -63 706 350 
Q 413 613 306 975 
L 781 1131 
Q 1000 538 1569 406 
Q 1706 369 1856 369 
Q 2550 369 2850 869 
Q 3000 1131 3000 1494 
Q 3000 2056 2581 2356 
Q 2319 2538 1969 2538 
Q 1400 2538 1031 2075 
Q 981 2013 938 1938 
L 500 2031 
L 644 4388 
L 3244 4388 
L 3200 3919 
L 1044 3919 
L 950 2500 
Q 1431 2975 2006 2975 
Q 2713 2975 3163 2475 
Q 3531 2063 3531 1488 
z
" transform="scale(0.015625)"/>
       </defs>
       <use xlink:href="#WenQuanYiZenHei-35"/>
       <use xlink:href="#WenQuanYiZenHei-30" x="59.960938"/>
       <use xlink:href="#WenQuanYiZenHei-30" x="119.921875"/>
      </g>
     </g>
    </g>
    <g id="xtick_7">
     <g id="line2d_13">
      <path d="M 539.758778 373.705 
L 539.758778 7.2 
" clip-path="url(#p62afb0a5b2)" style="fill: none; stroke: #b0b0b0; stroke-width: 0.8; stroke-linecap: square"/>
     </g>
     <g id="line2d_14">
      <g>
       <use xlink:href="#me1cba059bd" x="539.758778" y="373.705" style="stroke: #000000; stroke-width: 0.8"/>
      </g>
     </g>
     <g id="text_7">
      <!-- 600 -->
      <g transform="translate(523.567216 393.04625) scale(0.18 -0.18)">
       <defs>
        <path id="WenQuanYiZenHei-36" d="M 3550 1431 
Q 3550 725 3006 288 
Q 2581 -63 1994 -63 
Q 1013 -63 563 825 
Q 288 1363 288 2081 
Q 288 3294 856 3938 
Q 1319 4456 2075 4456 
Q 2969 4456 3363 3756 
Q 3431 3631 3481 3481 
L 2988 3350 
Q 2750 3994 2075 4006 
Q 1056 4006 844 2669 
Q 794 2356 794 1981 
L 806 1981 
Q 1006 2506 1544 2744 
Q 1819 2869 2119 2869 
Q 2788 2869 3213 2375 
Q 3550 1975 3550 1431 
z
M 3038 1406 
Q 3038 1906 2656 2213 
Q 2381 2431 2038 2431 
Q 1525 2431 1181 2044 
Q 919 1744 919 1356 
Q 919 881 1344 581 
Q 1631 375 1981 375 
Q 2519 375 2838 781 
Q 3038 1050 3038 1406 
z
" transform="scale(0.015625)"/>
       </defs>
       <use xlink:href="#WenQuanYiZenHei-36"/>
       <use xlink:href="#WenQuanYiZenHei-30" x="59.960938"/>
       <use xlink:href="#WenQuanYiZenHei-30" x="119.921875"/>
      </g>
     </g>
    </g>
    <g id="text_8">
     <!-- 仿真步/月 -->
     <g transform="translate(284.692656 414.818437) scale(0.18 -0.18)">
      <defs>
       <path id="WenQuanYiZenHei-4eff" d="M 5138 -44 
L 5138 2175 
L 3781 2175 
Q 3725 1075 3269 375 
Q 2856 -263 2244 -644 
Q 2106 -388 1825 -319 
Q 2506 0 2918 675 
Q 3331 1350 3331 2294 
L 3331 3369 
L 2956 3369 
Q 2594 3369 2231 3350 
Q 2250 3544 2231 3744 
Q 2594 3725 2956 3725 
L 5450 3725 
Q 5813 3725 6175 3744 
Q 6156 3544 6175 3350 
Q 5813 3369 5450 3369 
L 3781 3369 
L 3781 2531 
L 5588 2531 
L 5588 -175 
Q 5588 -425 5400 -600 
Q 5131 -831 4419 -825 
Q 4494 -513 4269 -275 
Q 4475 -300 4753 -303 
Q 5031 -306 5084 -265 
Q 5138 -225 5138 -44 
z
M 4213 3813 
Q 3856 4344 3431 4813 
L 3800 5150 
Q 4250 4650 4625 4088 
L 4213 3813 
z
M 2319 4919 
Q 2031 4006 1569 3219 
L 1569 94 
Q 1569 -381 1588 -850 
Q 1344 -825 1094 -850 
Q 1113 -381 1113 94 
L 1113 2550 
Q 794 2150 394 1819 
Q 250 2063 -13 2181 
Q 319 2438 613 2738 
Q 1131 3269 1369 3800 
Q 1619 4394 1788 5056 
Q 2031 4963 2319 4919 
z
" transform="scale(0.015625)"/>
       <path id="WenQuanYiZenHei-771f" d="M 744 400 
Q 431 400 119 381 
Q 138 550 119 725 
Q 431 706 744 706 
L 1413 706 
L 1406 3944 
L 2850 3944 
L 2850 4319 
L 1100 4319 
Q 788 4319 475 4306 
Q 494 4475 475 4644 
Q 788 4625 1100 4625 
L 2850 4625 
Q 2844 4938 2825 5256 
Q 3063 5231 3300 5256 
L 3275 4625 
L 5119 4625 
Q 5431 4625 5744 4644 
Q 5725 4475 5744 4306 
Q 5431 4319 5119 4319 
L 3275 4319 
L 3275 3944 
L 4806 3944 
L 4806 706 
L 5513 706 
Q 5819 706 6131 725 
Q 6119 550 6131 381 
Q 5825 400 5513 400 
L 4419 400 
Q 5106 -25 5750 -506 
L 5469 -888 
Q 4731 -338 3944 138 
L 4100 400 
L 2100 400 
Q 2213 288 2338 194 
Q 1619 -625 375 -1006 
Q 344 -781 188 -619 
Q 700 -481 1090 -234 
Q 1481 13 1881 400 
L 744 400 
z
M 4381 3200 
L 4381 3638 
L 1838 3638 
Q 1838 3431 1838 3200 
L 4381 3200 
z
M 4381 2394 
L 4381 2894 
L 1838 2894 
L 1838 2394 
L 4381 2394 
z
M 4381 1519 
L 4381 2088 
L 1838 2088 
L 1838 1519 
L 4381 1519 
z
M 4381 706 
L 4381 1213 
L 1838 1213 
L 1838 706 
L 4381 706 
z
" transform="scale(0.015625)"/>
       <path id="WenQuanYiZenHei-6b65" d="M 5369 1981 
Q 5581 1831 5819 1725 
Q 5038 313 3456 -313 
Q 2888 -531 2119 -753 
Q 1350 -975 931 -1013 
Q 663 -613 194 -494 
L 1244 -419 
Q 4263 -175 5369 1981 
z
M 1781 2031 
Q 1988 1888 2213 1794 
Q 1681 781 519 63 
Q 431 281 231 406 
Q 750 706 1097 1087 
Q 1444 1469 1781 2031 
z
M 3600 531 
Q 3356 563 3113 531 
Q 3131 988 3131 1438 
L 3131 2363 
L 1050 2363 
Q 700 2363 350 2350 
Q 369 2538 350 2725 
Q 700 2706 1050 2706 
L 1494 2706 
L 1494 3700 
Q 1494 4150 1475 4600 
Q 1719 4575 1963 4600 
Q 1944 4150 1944 3700 
L 1944 2706 
L 3144 2706 
L 3144 4350 
Q 3144 4800 3119 5256 
Q 3363 5231 3606 5256 
Q 3588 4800 3588 4350 
L 3588 4163 
L 4775 4163 
Q 5125 4163 5475 4181 
Q 5450 3994 5475 3806 
Q 5125 3819 4775 3819 
L 3588 3819 
L 3588 2706 
L 5438 2706 
Q 5788 2706 6138 2725 
Q 6119 2538 6138 2350 
Q 5788 2363 5438 2363 
L 3575 2363 
L 3575 1438 
Q 3575 988 3600 531 
z
" transform="scale(0.015625)"/>
       <path id="WenQuanYiZenHei-2f" d="M 3213 4388 
L 563 -1094 
L 138 -1094 
L 2775 4388 
L 3213 4388 
z
" transform="scale(0.015625)"/>
       <path id="WenQuanYiZenHei-6708" d="M 4519 206 
L 4519 1594 
L 2100 1594 
Q 2113 713 1694 84 
Q 1275 -544 631 -819 
Q 531 -544 269 -425 
Q 875 -263 1259 259 
Q 1644 781 1644 1525 
L 1638 4900 
L 4975 4900 
L 4975 44 
Q 4975 -400 4700 -563 
Q 4406 -738 3788 -731 
Q 3863 -413 3638 -169 
Q 3844 -194 4109 -197 
Q 4375 -200 4444 -147 
Q 4513 -94 4519 206 
z
M 4519 3406 
L 4519 4525 
L 2100 4525 
L 2100 3406 
L 4519 3406 
z
M 4519 1969 
L 4519 3031 
L 2100 3031 
L 2100 1969 
L 4519 1969 
z
" transform="scale(0.015625)"/>
      </defs>
      <use xlink:href="#WenQuanYiZenHei-4eff"/>
      <use xlink:href="#WenQuanYiZenHei-771f" x="100"/>
      <use xlink:href="#WenQuanYiZenHei-6b65" x="200"/>
      <use xlink:href="#WenQuanYiZenHei-2f" x="300"/>
      <use xlink:href="#WenQuanYiZenHei-6708" x="351.953125"/>
     </g>
    </g>
   </g>
   <g id="matplotlib.axis_2">
    <g id="ytick_1">
     <g id="line2d_15">
      <path d="M 89.539062 357.045682 
L 561.197812 357.045682 
" clip-path="url(#p62afb0a5b2)" style="fill: none; stroke: #b0b0b0; stroke-width: 0.8; stroke-linecap: square"/>
     </g>
     <g id="line2d_16">
      <defs>
       <path id="m9673be1a0a" d="M 0 0 
L -3.5 0 
" style="stroke: #000000; stroke-width: 0.8"/>
      </defs>
      <g>
       <use xlink:href="#m9673be1a0a" x="89.539062" y="357.045682" style="stroke: #000000; stroke-width: 0.8"/>
      </g>
     </g>
     <g id="text_9">
      <!-- 10000 -->
      <g transform="translate(28.567188 363.216307) scale(0.18 -0.18)">
       <use xlink:href="#WenQuanYiZenHei-31"/>
       <use xlink:href="#WenQuanYiZenHei-30" x="59.960938"/>
       <use xlink:href="#WenQuanYiZenHei-30" x="119.921875"/>
       <use xlink:href="#WenQuanYiZenHei-30" x="179.882812"/>
       <use xlink:href="#WenQuanYiZenHei-30" x="239.84375"/>
      </g>
     </g>
    </g>
    <g id="ytick_2">
     <g id="line2d_17">
      <path d="M 89.539062 308.960727 
L 561.197812 308.960727 
" clip-path="url(#p62afb0a5b2)" style="fill: none; stroke: #b0b0b0; stroke-width: 0.8; stroke-linecap: square"/>
     </g>
     <g id="line2d_18">
      <g>
       <use xlink:href="#m9673be1a0a" x="89.539062" y="308.960727" style="stroke: #000000; stroke-width: 0.8"/>
      </g>
     </g>
     <g id="text_10">
      <!-- 12500 -->
      <g transform="translate(28.567188 315.131352) scale(0.18 -0.18)">
       <use xlink:href="#WenQuanYiZenHei-31"/>
       <use xlink:href="#WenQuanYiZenHei-32" x="59.960938"/>
       <use xlink:href="#WenQuanYiZenHei-35" x="119.921875"/>
       <use xlink:href="#WenQuanYiZenHei-30" x="179.882812"/>
       <use xlink:href="#WenQuanYiZenHei-30" x="239.84375"/>
      </g>
     </g>
    </g>
    <g id="ytick_3">
     <g id="line2d_19">
      <path d="M 89.539062 260.875773 
L 561.197812 260.875773 
" clip-path="url(#p62afb0a5b2)" style="fill: none; stroke: #b0b0b0; stroke-width: 0.8; stroke-linecap: square"/>
     </g>
     <g id="line2d_20">
      <g>
       <use xlink:href="#m9673be1a0a" x="89.539062" y="260.875773" style="stroke: #000000; stroke-width: 0.8"/>
      </g>
     </g>
     <g id="text_11">
      <!-- 15000 -->
      <g transform="translate(28.567188 267.046398) scale(0.18 -0.18)">
       <use xlink:href="#WenQuanYiZenHei-31"/>
       <use xlink:href="#WenQuanYiZenHei-35" x="59.960938"/>
       <use xlink:href="#WenQuanYiZenHei-30" x="119.921875"/>
       <use xlink:href="#WenQuanYiZenHei-30" x="179.882812"/>
       <use xlink:href="#WenQuanYiZenHei-30" x="239.84375"/>
      </g>
     </g>
    </g>
    <g id="ytick_4">
     <g id="line2d_21">
      <path d="M 89.539062 212.790819 
L 561.197812 212.790819 
" clip-path="url(#p62afb0a5b2)" style="fill: none; stroke: #b0b0b0; stroke-width: 0.8; stroke-linecap: square"/>
     </g>
     <g id="line2d_22">
      <g>
       <use xlink:href="#m9673be1a0a" x="89.539062" y="212.790819" style="stroke: #000000; stroke-width: 0.8"/>
      </g>
     </g>
     <g id="text_12">
      <!-- 17500 -->
      <g transform="translate(28.567188 218.961444) scale(0.18 -0.18)">
       <defs>
        <path id="WenQuanYiZenHei-37" d="M 3400 4056 
Q 1838 2175 1838 0 
L 1275 0 
Q 1269 1438 2056 2825 
Q 2381 3400 2825 3913 
L 444 3913 
L 500 4388 
L 3400 4388 
L 3400 4056 
z
" transform="scale(0.015625)"/>
       </defs>
       <use xlink:href="#WenQuanYiZenHei-31"/>
       <use xlink:href="#WenQuanYiZenHei-37" x="59.960938"/>
       <use xlink:href="#WenQuanYiZenHei-35" x="119.921875"/>
       <use xlink:href="#WenQuanYiZenHei-30" x="179.882812"/>
       <use xlink:href="#WenQuanYiZenHei-30" x="239.84375"/>
      </g>
     </g>
    </g>
    <g id="ytick_5">
     <g id="line2d_23">
      <path d="M 89.539062 164.705864 
L 561.197812 164.705864 
" clip-path="url(#p62afb0a5b2)" style="fill: none; stroke: #b0b0b0; stroke-width: 0.8; stroke-linecap: square"/>
     </g>
     <g id="line2d_24">
      <g>
       <use xlink:href="#m9673be1a0a" x="89.539062" y="164.705864" style="stroke: #000000; stroke-width: 0.8"/>
      </g>
     </g>
     <g id="text_13">
      <!-- 20000 -->
      <g transform="translate(28.567188 170.876489) scale(0.18 -0.18)">
       <use xlink:href="#WenQuanYiZenHei-32"/>
       <use xlink:href="#WenQuanYiZenHei-30" x="59.960938"/>
       <use xlink:href="#WenQuanYiZenHei-30" x="119.921875"/>
       <use xlink:href="#WenQuanYiZenHei-30" x="179.882812"/>
       <use xlink:href="#WenQuanYiZenHei-30" x="239.84375"/>
      </g>
     </g>
    </g>
    <g id="ytick_6">
     <g id="line2d_25">
      <path d="M 89.539062 116.62091 
L 561.197812 116.62091 
" clip-path="url(#p62afb0a5b2)" style="fill: none; stroke: #b0b0b0; stroke-width: 0.8; stroke-linecap: square"/>
     </g>
     <g id="line2d_26">
      <g>
       <use xlink:href="#m9673be1a0a" x="89.539062" y="116.62091" style="stroke: #000000; stroke-width: 0.8"/>
      </g>
     </g>
     <g id="text_14">
      <!-- 22500 -->
      <g transform="translate(28.567188 122.791535) scale(0.18 -0.18)">
       <use xlink:href="#WenQuanYiZenHei-32"/>
       <use xlink:href="#WenQuanYiZenHei-32" x="59.960938"/>
       <use xlink:href="#WenQuanYiZenHei-35" x="119.921875"/>
       <use xlink:href="#WenQuanYiZenHei-30" x="179.882812"/>
       <use xlink:href="#WenQuanYiZenHei-30" x="239.84375"/>
      </g>
     </g>
    </g>
    <g id="ytick_7">
     <g id="line2d_27">
      <path d="M 89.539062 68.535955 
L 561.197812 68.535955 
" clip-path="url(#p62afb0a5b2)" style="fill: none; stroke: #b0b0b0; stroke-width: 0.8; stroke-linecap: square"/>
     </g>
     <g id="line2d_28">
      <g>
       <use xlink:href="#m9673be1a0a" x="89.539062" y="68.535955" style="stroke: #000000; stroke-width: 0.8"/>
      </g>
     </g>
     <g id="text_15">
      <!-- 25000 -->
      <g transform="translate(28.567188 74.70658) scale(0.18 -0.18)">
       <use xlink:href="#WenQuanYiZenHei-32"/>
       <use xlink:href="#WenQuanYiZenHei-35" x="59.960938"/>
       <use xlink:href="#WenQuanYiZenHei-30" x="119.921875"/>
       <use xlink:href="#WenQuanYiZenHei-30" x="179.882812"/>
       <use xlink:href="#WenQuanYiZenHei-30" x="239.84375"/>
      </g>
     </g>
    </g>
    <g id="ytick_8">
     <g id="line2d_29">
      <path d="M 89.539062 20.451001 
L 561.197812 20.451001 
" clip-path="url(#p62afb0a5b2)" style="fill: none; stroke: #b0b0b0; stroke-width: 0.8; stroke-linecap: square"/>
     </g>
     <g id="line2d_30">
      <g>
       <use xlink:href="#m9673be1a0a" x="89.539062" y="20.451001" style="stroke: #000000; stroke-width: 0.8"/>
      </g>
     </g>
     <g id="text_16">
      <!-- 27500 -->
      <g transform="translate(28.567188 26.621626) scale(0.18 -0.18)">
       <use xlink:href="#WenQuanYiZenHei-32"/>
       <use xlink:href="#WenQuanYiZenHei-37" x="59.960938"/>
       <use xlink:href="#WenQuanYiZenHei-35" x="119.921875"/>
       <use xlink:href="#WenQuanYiZenHei-30" x="179.882812"/>
       <use xlink:href="#WenQuanYiZenHei-30" x="239.84375"/>
      </g>
     </g>
    </g>
    <g id="text_17">
     <!-- 产量 -->
     <g transform="translate(21.5775 208.4525) rotate(-90) scale(0.18 -0.18)">
      <defs>
       <path id="WenQuanYiZenHei-4ea7" d="M 1050 981 
L 1050 2994 
L 2431 2994 
Q 2175 3531 1850 4031 
L 2119 4206 
L 1300 4206 
Q 938 4206 569 4188 
Q 594 4388 569 4581 
Q 938 4563 1300 4563 
L 2956 4563 
L 2613 5113 
L 3031 5375 
L 3475 4675 
L 3300 4563 
L 5306 4563 
Q 5669 4563 6031 4581 
Q 6013 4388 6031 4188 
Q 5669 4206 5306 4206 
L 2325 4206 
Q 2656 3681 2919 3125 
L 2631 2994 
L 3406 2994 
L 3825 3700 
L 4125 4169 
Q 4319 4013 4544 3900 
Q 4400 3663 4244 3431 
L 3938 2994 
L 5406 2994 
Q 5775 2994 6138 3006 
Q 6119 2813 6138 2613 
Q 5775 2631 5406 2631 
L 3706 2631 
L 3688 2606 
Q 3675 2619 3656 2631 
L 1500 2631 
L 1500 981 
Q 1500 369 1247 -87 
Q 994 -544 575 -800 
Q 456 -550 206 -438 
Q 600 -288 825 78 
Q 1050 444 1050 981 
z
" transform="scale(0.015625)"/>
       <path id="WenQuanYiZenHei-91cf" d="M 5963 -138 
Q 5944 -281 5963 -431 
Q 5694 -419 5425 -419 
L 838 -419 
Q 569 -419 306 -431 
Q 319 -281 306 -138 
Q 569 -150 838 -150 
L 2831 -150 
L 2831 269 
L 1481 269 
Q 1188 269 894 250 
Q 913 413 894 569 
Q 1188 556 1481 556 
L 2831 556 
L 2831 969 
L 1125 969 
Q 1200 1775 1125 2581 
L 5094 2581 
Q 5013 1775 5088 969 
L 3250 969 
L 3250 556 
L 4819 556 
Q 5113 556 5400 569 
Q 5388 413 5400 250 
Q 5113 269 4819 269 
L 3250 269 
L 3250 -150 
L 5425 -150 
Q 5694 -150 5963 -138 
z
M 6131 3194 
Q 6119 3038 6131 2875 
Q 5844 2894 5550 2894 
L 700 2894 
Q 406 2894 119 2875 
Q 131 3038 119 3194 
Q 413 3181 700 3181 
L 5550 3181 
Q 5838 3181 6131 3194 
z
M 1125 3469 
Q 1200 4250 1125 5025 
L 5013 5025 
Q 4931 4250 5000 3469 
L 1125 3469 
z
M 3250 1900 
L 4669 1900 
L 4669 2294 
L 3250 2294 
L 3250 1900 
z
M 2831 1900 
L 2831 2294 
L 1544 2294 
L 1544 1900 
L 2831 1900 
z
M 3250 1638 
L 3250 1256 
L 4669 1256 
L 4669 1638 
L 3250 1638 
z
M 2831 1638 
L 1544 1638 
L 1544 1256 
L 2831 1256 
L 2831 1638 
z
M 1544 4738 
L 1544 4381 
L 4588 4381 
L 4594 4738 
L 1544 4738 
z
M 1544 4119 
L 1544 3756 
L 4588 3756 
L 4588 4119 
L 1544 4119 
z
" transform="scale(0.015625)"/>
      </defs>
      <use xlink:href="#WenQuanYiZenHei-4ea7"/>
      <use xlink:href="#WenQuanYiZenHei-91cf" x="100"/>
     </g>
    </g>
   </g>
   <g id="line2d_31">
    <path d="M 110.978097 357.045682 
L 111.692731 158.685008 
L 112.407366 165.760338 
L 113.122 145.732845 
L 113.836634 171.730336 
L 114.551269 166.11966 
L 115.265903 169.540551 
L 115.980538 154.943173 
L 116.695172 164.823922 
L 117.409807 177.223059 
L 118.124441 149.85823 
L 118.839076 164.432121 
L 119.55371 165.232985 
L 120.268345 119.554062 
L 120.982979 179.190604 
L 121.697614 135.417834 
L 122.412248 163.294189 
L 123.126883 142.495582 
L 123.841517 161.479706 
L 124.556152 133.533971 
L 125.270786 147.110419 
L 125.98542 141.735089 
L 126.700055 138.090071 
L 127.414689 148.818947 
L 128.129324 137.497329 
L 128.843958 166.321012 
L 129.558593 146.825465 
L 130.273227 146.909076 
L 130.987862 138.93864 
L 131.702496 150.24727 
L 133.131765 187.413961 
L 133.8464 133.404274 
L 134.561034 113.10584 
L 135.275669 100.851384 
L 135.990303 124.081386 
L 136.704937 151.147044 
L 137.419572 116.754185 
L 138.134206 99.553252 
L 138.848841 130.17023 
L 139.563475 109.639087 
L 140.27811 112.030396 
L 141.707379 71.523493 
L 142.422013 110.069761 
L 143.136648 102.353054 
L 143.851282 109.470724 
L 144.565917 128.526874 
L 145.280551 85.780584 
L 145.995186 86.364455 
L 146.70982 47.781674 
L 147.424455 50.274826 
L 148.139089 139.135012 
L 148.853723 74.661397 
L 149.568358 69.565706 
L 150.282992 100.397343 
L 150.997627 117.58898 
L 151.712261 47.50012 
L 152.426896 72.517414 
L 153.14153 103.556476 
L 153.856165 90.733581 
L 154.570799 96.560024 
L 155.285434 68.778262 
L 156.000068 61.400056 
L 156.714703 94.726224 
L 157.429337 75.361629 
L 158.143972 69.530791 
L 158.858606 109.92756 
L 159.573241 99.49983 
L 160.287875 109.127079 
L 161.002509 87.163329 
L 161.717144 99.701523 
L 162.431778 105.860784 
L 163.861047 141.643556 
L 164.575682 114.20621 
L 165.290316 145.728651 
L 166.004951 111.975305 
L 166.719585 84.316908 
L 167.43422 131.156017 
L 168.148854 114.333618 
L 168.863489 129.936957 
L 169.578123 122.501885 
L 170.292758 95.377768 
L 171.007392 92.030573 
L 172.436661 162.05838 
L 173.151295 155.074112 
L 173.86593 124.947946 
L 175.295199 86.517061 
L 176.009833 116.111162 
L 176.724468 128.748726 
L 177.439102 149.781677 
L 178.153737 145.905992 
L 178.868371 157.690456 
L 179.583006 151.460521 
L 180.29764 134.263143 
L 181.012275 120.372311 
L 181.726909 96.208931 
L 182.441544 106.114188 
L 183.156178 93.956725 
L 183.870812 133.13671 
L 184.585447 109.847925 
L 185.300081 116.702619 
L 186.014716 122.282842 
L 186.72935 102.056491 
L 187.443985 125.009877 
L 188.158619 99.387379 
L 188.873254 148.157842 
L 189.587888 105.082825 
L 190.302523 128.19736 
L 191.017157 101.344183 
L 192.446426 90.652231 
L 193.161061 97.138892 
L 193.875695 90.401486 
L 194.59033 145.996907 
L 195.304964 112.554692 
L 196.019598 88.91643 
L 196.734233 77.277124 
L 197.448867 98.263033 
L 198.163502 130.48582 
L 198.878136 83.165379 
L 199.592771 81.980258 
L 200.307405 101.833266 
L 201.02204 106.230538 
L 201.736674 99.178727 
L 202.451309 114.394885 
L 203.165943 119.591665 
L 203.880578 106.735891 
L 204.595212 126.447198 
L 205.309847 92.923753 
L 206.024481 70.778252 
L 206.739116 113.342744 
L 207.45375 97.994117 
L 208.168384 108.976481 
L 208.883019 131.144001 
L 209.597653 104.229084 
L 210.312288 114.774009 
L 211.026922 143.781827 
L 211.741557 95.628164 
L 212.456191 86.438306 
L 213.170826 102.940443 
L 213.88546 94.101918 
L 214.600095 111.1618 
L 215.314729 109.710778 
L 216.029364 113.63002 
L 216.743998 91.562217 
L 217.458633 103.923235 
L 218.173267 78.384108 
L 218.887902 120.158309 
L 221.031805 77.064579 
L 221.746439 100.829216 
L 222.461074 109.884958 
L 223.175708 84.149005 
L 223.890343 87.093508 
L 224.604977 101.360639 
L 225.319612 104.187291 
L 226.034246 76.446703 
L 226.748881 106.953067 
L 227.463515 87.832413 
L 228.17815 84.087467 
L 228.892784 90.655485 
L 229.607419 62.540663 
L 230.322053 133.952948 
L 231.036687 65.215879 
L 231.751322 49.166693 
L 232.465956 101.976544 
L 233.180591 85.901828 
L 233.895225 99.132784 
L 234.60986 102.917796 
L 235.324494 108.223684 
L 236.039129 45.089137 
L 236.753763 61.884771 
L 237.468398 55.611709 
L 238.183032 47.44184 
L 238.897667 123.402517 
L 239.612301 49.455599 
L 240.326936 70.746897 
L 241.04157 50.368058 
L 241.756205 55.898571 
L 242.470839 84.712119 
L 243.185473 79.095613 
L 243.900108 94.000239 
L 244.614742 60.82756 
L 245.329377 39.188507 
L 246.044011 35.231831 
L 246.758646 68.919398 
L 247.47328 91.560207 
L 248.187915 37.118385 
L 248.902549 55.898809 
L 249.617184 48.677013 
L 250.331818 55.673654 
L 251.046453 55.407974 
L 251.761087 45.696498 
L 252.475722 51.700828 
L 253.190356 44.22095 
L 253.904991 79.652291 
L 254.619625 39.499928 
L 255.334259 53.189496 
L 256.048894 40.567437 
L 256.763528 65.177802 
L 257.478163 54.460317 
L 258.192797 50.781103 
L 258.907432 39.509304 
L 259.622066 68.462193 
L 260.336701 43.224471 
L 261.051335 27.147488 
L 261.76597 45.175692 
L 262.480604 23.859318 
L 263.195239 42.174642 
L 263.909873 44.151089 
L 264.624508 80.491509 
L 265.339142 68.591787 
L 266.053777 71.040711 
L 266.768411 61.048761 
L 267.483045 53.504333 
L 268.19768 54.612709 
L 268.912314 77.516444 
L 269.626949 74.762901 
L 270.341583 81.67926 
L 271.056218 84.74363 
L 271.770852 60.503768 
L 272.485487 42.685968 
L 273.200121 67.526337 
L 273.914756 99.575842 
L 274.62939 46.150533 
L 275.344025 64.288028 
L 276.058659 59.617562 
L 276.773294 73.594398 
L 277.487928 50.730063 
L 278.202562 60.164875 
L 278.917197 97.099446 
L 279.631831 77.027601 
L 280.346466 66.446568 
L 281.0611 48.913241 
L 281.775735 67.688546 
L 282.490369 91.900144 
L 283.205004 64.296077 
L 283.919638 87.577665 
L 284.634273 70.219858 
L 285.348907 117.69024 
L 286.063542 77.474481 
L 286.778176 70.627986 
L 287.492811 56.126382 
L 288.207445 108.886528 
L 288.92208 101.64455 
L 289.636714 59.295589 
L 290.351348 91.00779 
L 291.065983 78.275682 
L 291.780617 68.195799 
L 292.495252 72.462581 
L 293.209886 93.126259 
L 293.924521 83.891893 
L 294.639155 106.135914 
L 295.35379 100.320506 
L 296.068424 102.568196 
L 296.783059 76.250699 
L 297.497693 109.295227 
L 298.212328 102.345769 
L 298.926962 77.747207 
L 299.641597 92.150596 
L 300.356231 136.889956 
L 301.070866 108.299262 
L 301.7855 84.367942 
L 302.500134 85.163277 
L 303.214769 86.772239 
L 303.929403 70.387759 
L 304.644038 134.084089 
L 305.358672 96.322905 
L 306.073307 113.887974 
L 306.787941 143.344474 
L 307.502576 111.02407 
L 308.21721 95.688733 
L 308.931845 92.844493 
L 309.646479 89.525429 
L 310.361114 116.321081 
L 311.075748 83.388713 
L 311.790383 133.982124 
L 312.505017 74.372252 
L 313.219652 101.928674 
L 313.934286 97.048341 
L 314.64892 74.54946 
L 315.363555 107.067831 
L 316.078189 88.574895 
L 316.792824 101.524023 
L 317.507458 70.061384 
L 318.222093 106.51864 
L 318.936727 104.095435 
L 319.651362 90.113092 
L 320.365996 108.902438 
L 321.080631 114.920467 
L 321.795265 86.576047 
L 322.5099 84.132184 
L 323.224534 95.507667 
L 323.939169 104.958708 
L 324.653803 130.384879 
L 325.368437 100.940358 
L 326.083072 111.187936 
L 326.797706 103.327216 
L 327.512341 121.738816 
L 328.226975 94.25762 
L 328.94161 94.75929 
L 329.656244 71.775007 
L 330.370879 85.00618 
L 331.085513 83.868153 
L 331.800148 82.182824 
L 332.514782 103.36386 
L 333.229417 77.315572 
L 333.944051 127.817016 
L 335.37332 70.660859 
L 336.087955 151.310369 
L 336.802589 88.505949 
L 337.517223 86.678828 
L 338.231858 148.37359 
L 338.946492 136.667281 
L 339.661127 141.355252 
L 340.375761 139.639331 
L 341.090396 104.153799 
L 341.80503 163.21477 
L 342.519665 121.179862 
L 343.234299 141.08834 
L 343.948934 127.104723 
L 344.663568 106.331822 
L 345.378203 128.62171 
L 346.092837 144.543682 
L 346.807472 127.3125 
L 347.522106 129.039354 
L 348.236741 124.84647 
L 348.951375 102.924093 
L 349.666009 106.06021 
L 350.380644 69.548877 
L 351.095278 123.237894 
L 351.809913 117.986744 
L 352.524547 105.81646 
L 353.239182 128.115144 
L 353.953816 110.795929 
L 354.668451 123.51993 
L 355.383085 123.293964 
L 356.09772 136.038807 
L 356.812354 125.382266 
L 357.526989 138.818383 
L 358.241623 140.522494 
L 358.956258 145.069848 
L 359.670892 156.158537 
L 360.385527 80.957306 
L 361.100161 141.490958 
L 361.814795 119.782519 
L 362.52943 121.921438 
L 363.244064 149.498538 
L 363.958699 113.319591 
L 364.673333 145.675584 
L 365.387968 153.212583 
L 366.102602 131.092655 
L 366.817237 91.433853 
L 367.531871 142.813344 
L 368.246506 116.293503 
L 368.96114 152.768442 
L 369.675775 126.653261 
L 370.390409 125.758164 
L 371.105044 160.223483 
L 372.534312 94.220843 
L 373.248947 135.022259 
L 373.963581 103.768853 
L 374.678216 147.851122 
L 375.39285 139.221247 
L 376.107485 176.091154 
L 376.822119 151.123985 
L 377.536754 136.171162 
L 378.251388 111.806121 
L 378.966023 176.79879 
L 379.680657 143.221707 
L 380.395292 124.854982 
L 381.109926 151.217664 
L 381.824561 141.77299 
L 382.539195 111.846882 
L 383.25383 135.994123 
L 383.968464 138.438738 
L 384.683098 125.906769 
L 385.397733 163.81595 
L 386.112367 140.377407 
L 386.827002 126.383046 
L 387.541636 173.377936 
L 388.256271 128.241218 
L 388.970905 160.149783 
L 389.68554 151.009766 
L 390.400174 165.498789 
L 391.114809 151.677069 
L 391.829443 131.028309 
L 392.544078 154.195783 
L 393.258712 162.123659 
L 393.973347 131.385271 
L 394.687981 144.967813 
L 395.402616 198.758617 
L 396.11725 122.946443 
L 396.831884 180.243656 
L 397.546519 170.053954 
L 398.261153 155.166179 
L 398.975788 148.10061 
L 399.690422 191.061603 
L 400.405057 190.134687 
L 401.119691 146.899969 
L 401.834326 141.260354 
L 402.54896 177.922289 
L 403.263595 164.636648 
L 403.978229 155.475519 
L 404.692864 200.187886 
L 405.407498 188.169532 
L 406.122133 143.413681 
L 406.836767 164.537944 
L 407.551402 140.335116 
L 408.266036 171.770427 
L 408.98067 187.496678 
L 409.695305 199.707498 
L 410.409939 154.745472 
L 411.124574 210.392107 
L 411.839208 237.68151 
L 412.553843 188.474863 
L 413.268477 201.584143 
L 413.983112 171.35508 
L 414.697746 177.171211 
L 415.412381 159.508931 
L 416.127015 197.884825 
L 416.84165 229.873541 
L 417.556284 235.573444 
L 418.985553 161.447488 
L 419.700187 196.352501 
L 420.414822 196.274487 
L 421.129456 169.454185 
L 421.844091 198.437217 
L 422.558725 194.562616 
L 423.27336 177.24679 
L 423.987994 156.086477 
L 424.702629 203.888574 
L 425.417263 180.433393 
L 426.131898 227.63161 
L 426.846532 155.204485 
L 427.561167 189.950221 
L 428.275801 197.74209 
L 428.990436 132.644552 
L 429.70507 161.052486 
L 430.419705 143.559707 
L 431.134339 229.19737 
L 431.848973 177.238963 
L 432.563608 171.865074 
L 433.278242 175.808317 
L 433.992877 223.111726 
L 434.707511 113.581812 
L 436.13678 185.217019 
L 436.851415 250.535036 
L 437.566049 140.303769 
L 438.280684 177.908821 
L 438.995318 191.65081 
L 439.709953 164.380912 
L 440.424587 148.008755 
L 441.139222 161.744153 
L 441.853856 181.780641 
L 442.568491 147.852095 
L 443.283125 210.938501 
L 443.997759 162.044932 
L 444.712394 170.189735 
L 445.427028 187.307335 
L 446.141663 216.511271 
L 446.856297 197.829918 
L 447.570932 144.919111 
L 448.285566 177.472587 
L 449.000201 199.528635 
L 449.714835 177.003625 
L 450.42947 184.99904 
L 451.144104 215.687878 
L 451.858739 169.31649 
L 452.573373 165.539244 
L 453.288008 136.263325 
L 454.002642 212.643181 
L 454.717277 155.015075 
L 455.431911 141.077726 
L 456.146545 139.45556 
L 456.86118 142.969667 
L 457.575814 162.433484 
L 458.290449 171.131626 
L 459.005083 167.341373 
L 459.719718 161.694772 
L 460.434352 182.152702 
L 461.148987 236.178083 
L 461.863621 177.672541 
L 462.578256 133.522495 
L 463.29289 139.460488 
L 464.007525 165.732784 
L 464.722159 139.843524 
L 465.436794 155.498998 
L 466.151428 127.16005 
L 466.866062 146.401059 
L 467.580697 148.953969 
L 468.295331 171.547705 
L 469.009966 146.231686 
L 469.7246 132.44055 
L 470.439235 147.338157 
L 471.153869 185.544881 
L 471.868504 149.696156 
L 472.583138 123.120916 
L 473.297773 179.47398 
L 474.012407 156.722862 
L 474.727042 129.597967 
L 475.441676 186.046923 
L 476.870945 146.94648 
L 477.58558 167.611446 
L 478.300214 139.637138 
L 479.014848 150.661528 
L 479.729483 118.172485 
L 480.444117 157.431732 
L 481.158752 176.156776 
L 481.873386 142.57888 
L 482.588021 182.152873 
L 483.302655 150.279192 
L 484.01729 199.036131 
L 485.446559 106.375011 
L 486.161193 197.059143 
L 486.875828 159.775804 
L 487.590462 175.028424 
L 488.305097 187.299404 
L 489.019731 133.703314 
L 489.734366 191.166233 
L 490.449 134.637277 
L 491.163634 193.642771 
L 491.878269 163.363767 
L 492.592903 194.539889 
L 493.307538 233.67296 
L 494.022172 152.961452 
L 494.736807 165.4631 
L 495.451441 189.410568 
L 496.166076 169.436888 
L 496.88071 182.905936 
L 497.595345 182.314118 
L 498.309979 111.142506 
L 499.024614 182.544585 
L 499.739248 137.162617 
L 500.453883 168.920919 
L 501.168517 181.119096 
L 501.883152 159.402737 
L 502.597786 200.040847 
L 503.31242 155.483893 
L 504.027055 129.700381 
L 504.741689 154.254132 
L 505.456324 139.383217 
L 506.170958 95.998439 
L 506.885593 117.330945 
L 507.600227 143.685395 
L 508.314862 129.844132 
L 509.029496 139.020622 
L 509.744131 141.651306 
L 510.458765 162.514925 
L 511.1734 141.719407 
L 511.888034 151.489895 
L 512.602669 129.057149 
L 513.317303 157.723911 
L 514.031937 130.316854 
L 514.746572 88.332246 
L 515.461206 164.871769 
L 516.175841 125.71517 
L 516.890475 166.816667 
L 517.60511 179.327361 
L 518.319744 111.460269 
L 519.034379 128.259108 
L 519.749013 109.576957 
L 520.463648 121.202037 
L 521.178282 158.199529 
L 521.892917 170.605151 
L 522.607551 134.983711 
L 523.322186 150.445066 
L 524.03682 106.908169 
L 524.751455 138.751857 
L 525.466089 89.05483 
L 526.180723 82.519042 
L 526.895358 141.599543 
L 527.609992 118.155463 
L 528.324627 123.082991 
L 529.039261 162.802457 
L 529.753896 131.865027 
L 530.46853 168.528033 
L 531.183165 176.026617 
L 531.897799 169.07001 
L 532.612434 159.112838 
L 533.327068 155.155346 
L 534.041703 130.093195 
L 534.756337 170.413334 
L 535.470972 116.628038 
L 536.185606 128.560489 
L 536.900241 130.397132 
L 537.614875 149.009525 
L 538.329509 112.48264 
L 539.044144 173.046811 
L 539.758778 161.753425 
L 539.758778 161.753425 
" clip-path="url(#p62afb0a5b2)" style="fill: none; stroke: #1f77b4; stroke-width: 1.5; stroke-linecap: square"/>
   </g>
   <g id="patch_3">
    <path d="M 89.539062 373.705 
L 89.539062 7.2 
" style="fill: none; stroke: #000000; stroke-width: 0.8; stroke-linejoin: miter; stroke-linecap: square"/>
   </g>
   <g id="patch_4">
    <path d="M 561.197812 373.705 
L 561.197812 7.2 
" style="fill: none; stroke: #000000; stroke-width: 0.8; stroke-linejoin: miter; stroke-linecap: square"/>
   </g>
   <g id="patch_5">
    <path d="M 89.539062 373.705 
L 561.197812 373.705 
" style="fill: none; stroke: #000000; stroke-width: 0.8; stroke-linejoin: miter; stroke-linecap: square"/>
   </g>
   <g id="patch_6">
    <path d="M 89.539062 7.2 
L 561.197812 7.2 
" style="fill: none; stroke: #000000; stroke-width: 0.8; stroke-linejoin: miter; stroke-linecap: square"/>
   </g>
  </g>
 </g>
 <defs>
  <clipPath id="p62afb0a5b2">
   <rect x="89.539062" y="7.2" width="471.65875" height="366.505"/>
  </clipPath>
 </defs>
</svg>
