<?xml version="1.0" encoding="utf-8" standalone="no"?>
<!DOCTYPE svg PUBLIC "-//W3C//DTD SVG 1.1//EN"
  "http://www.w3.org/Graphics/SVG/1.1/DTD/svg11.dtd">
<svg xmlns:xlink="http://www.w3.org/1999/xlink" width="568.468125pt" height="424.917312pt" viewBox="0 0 568.468125 424.917312" xmlns="http://www.w3.org/2000/svg" version="1.1">
 <metadata>
  <rdf:RDF xmlns:dc="http://purl.org/dc/elements/1.1/" xmlns:cc="http://creativecommons.org/ns#" xmlns:rdf="http://www.w3.org/1999/02/22-rdf-syntax-ns#">
   <cc:Work>
    <dc:type rdf:resource="http://purl.org/dc/dcmitype/StillImage"/>
    <dc:date>2024-12-29T09:37:33.324159</dc:date>
    <dc:format>image/svg+xml</dc:format>
    <dc:creator>
     <cc:Agent>
      <dc:title>Matplotlib v3.9.2, https://matplotlib.org/</dc:title>
     </cc:Agent>
    </dc:creator>
   </cc:Work>
  </rdf:RDF>
 </metadata>
 <defs>
  <style type="text/css">*{stroke-linejoin: round; stroke-linecap: butt}</style>
 </defs>
 <g id="figure_1">
  <g id="patch_1">
   <path d="M 0 424.917312 
L 568.468125 424.917312 
L 568.468125 0 
L 0 0 
L 0 424.917312 
z
" style="fill: none"/>
  </g>
  <g id="axes_1">
   <g id="patch_2">
    <path d="M 56.961875 373.526999 
L 561.268125 373.526999 
L 561.268125 10.628642 
L 56.961875 10.628642 
L 56.961875 373.526999 
z
" style="fill: none"/>
   </g>
   <g id="matplotlib.axis_1">
    <g id="xtick_1">
     <g id="line2d_1">
      <path d="M 79.884886 373.526999 
L 79.884886 10.628642 
" clip-path="url(#pa9bb91967b)" style="fill: none; stroke: #b0b0b0; stroke-width: 0.8; stroke-linecap: square"/>
     </g>
     <g id="line2d_2">
      <defs>
       <path id="mc402b6e42e" d="M 0 0 
L 0 3.5 
" style="stroke: #000000; stroke-width: 0.8"/>
      </defs>
      <g>
       <use xlink:href="#mc402b6e42e" x="79.884886" y="373.526999" style="stroke: #000000; stroke-width: 0.8"/>
      </g>
     </g>
     <g id="text_1">
      <!-- 0 -->
      <g transform="translate(74.487699 392.868249) scale(0.18 -0.18)">
       <defs>
        <path id="WenQuanYiZenHei-30" d="M 3581 2175 
Q 3581 1288 3169 638 
Q 2713 -63 1938 -63 
Q 1025 -63 563 831 
Q 256 1425 256 2188 
Q 256 3188 700 3819 
Q 1138 4456 1888 4456 
Q 2863 4456 3306 3500 
Q 3581 2925 3581 2175 
z
M 3019 2100 
Q 3019 3356 2500 3806 
L 2350 3919 
Q 2144 4031 1888 4031 
Q 1100 4031 888 2956 
Q 819 2625 819 2225 
Q 819 1013 1338 569 
Q 1588 356 1938 356 
Q 2675 356 2925 1294 
Q 3019 1663 3019 2100 
z
" transform="scale(0.015625)"/>
       </defs>
       <use xlink:href="#WenQuanYiZenHei-30"/>
      </g>
     </g>
    </g>
    <g id="xtick_2">
     <g id="line2d_3">
      <path d="M 156.294924 373.526999 
L 156.294924 10.628642 
" clip-path="url(#pa9bb91967b)" style="fill: none; stroke: #b0b0b0; stroke-width: 0.8; stroke-linecap: square"/>
     </g>
     <g id="line2d_4">
      <g>
       <use xlink:href="#mc402b6e42e" x="156.294924" y="373.526999" style="stroke: #000000; stroke-width: 0.8"/>
      </g>
     </g>
     <g id="text_2">
      <!-- 100 -->
      <g transform="translate(140.103362 392.868249) scale(0.18 -0.18)">
       <defs>
        <path id="WenQuanYiZenHei-31" d="M 3556 0 
L 488 0 
L 488 406 
L 1800 406 
L 1800 3725 
Q 1231 3125 588 2788 
L 588 3338 
Q 1456 3781 1931 4388 
L 2331 4388 
L 2331 406 
L 3556 406 
L 3556 0 
z
" transform="scale(0.015625)"/>
       </defs>
       <use xlink:href="#WenQuanYiZenHei-31"/>
       <use xlink:href="#WenQuanYiZenHei-30" x="59.960938"/>
       <use xlink:href="#WenQuanYiZenHei-30" x="119.921875"/>
      </g>
     </g>
    </g>
    <g id="xtick_3">
     <g id="line2d_5">
      <path d="M 232.704962 373.526999 
L 232.704962 10.628642 
" clip-path="url(#pa9bb91967b)" style="fill: none; stroke: #b0b0b0; stroke-width: 0.8; stroke-linecap: square"/>
     </g>
     <g id="line2d_6">
      <g>
       <use xlink:href="#mc402b6e42e" x="232.704962" y="373.526999" style="stroke: #000000; stroke-width: 0.8"/>
      </g>
     </g>
     <g id="text_3">
      <!-- 200 -->
      <g transform="translate(216.5134 392.868249) scale(0.18 -0.18)">
       <defs>
        <path id="WenQuanYiZenHei-32" d="M 3488 0 
L 369 0 
L 369 456 
L 2150 1850 
Q 2931 2463 2931 3144 
Q 2931 3619 2488 3863 
Q 2231 4013 1931 4013 
Q 1425 4013 1113 3619 
Q 894 3356 881 3013 
L 369 3169 
Q 531 3981 1213 4300 
Q 1544 4456 1950 4456 
Q 2631 4456 3088 4044 
L 3225 3888 
L 3350 3706 
Q 3481 3444 3481 3144 
Q 3481 2313 2519 1569 
L 1069 456 
L 3488 456 
L 3488 0 
z
" transform="scale(0.015625)"/>
       </defs>
       <use xlink:href="#WenQuanYiZenHei-32"/>
       <use xlink:href="#WenQuanYiZenHei-30" x="59.960938"/>
       <use xlink:href="#WenQuanYiZenHei-30" x="119.921875"/>
      </g>
     </g>
    </g>
    <g id="xtick_4">
     <g id="line2d_7">
      <path d="M 309.115 373.526999 
L 309.115 10.628642 
" clip-path="url(#pa9bb91967b)" style="fill: none; stroke: #b0b0b0; stroke-width: 0.8; stroke-linecap: square"/>
     </g>
     <g id="line2d_8">
      <g>
       <use xlink:href="#mc402b6e42e" x="309.115" y="373.526999" style="stroke: #000000; stroke-width: 0.8"/>
      </g>
     </g>
     <g id="text_4">
      <!-- 300 -->
      <g transform="translate(292.923437 392.868249) scale(0.18 -0.18)">
       <defs>
        <path id="WenQuanYiZenHei-33" d="M 3588 1231 
Q 3588 494 2875 144 
Q 2450 -63 1925 -63 
Q 1044 -63 556 488 
Q 356 706 256 1000 
L 769 1169 
Q 994 375 1913 375 
Q 2631 375 2900 788 
Q 3019 975 3019 1231 
Q 3019 1638 2638 1881 
Q 2325 2081 1613 2069 
L 1338 2069 
L 1338 2494 
Q 1969 2494 2094 2506 
Q 2325 2544 2463 2613 
Q 2763 2756 2844 3100 
Q 2863 3169 2863 3244 
Q 2863 3744 2381 3944 
L 2163 4006 
Q 2056 4025 1931 4025 
Q 1388 4025 1075 3631 
Q 969 3488 906 3313 
L 419 3456 
Q 675 4150 1400 4369 
Q 1669 4456 1975 4456 
Q 2694 4456 3106 4050 
Q 3419 3744 3419 3275 
Q 3419 2813 3025 2513 
Q 2825 2356 2575 2319 
L 2575 2306 
Q 3181 2213 3450 1769 
Q 3588 1525 3588 1231 
z
" transform="scale(0.015625)"/>
       </defs>
       <use xlink:href="#WenQuanYiZenHei-33"/>
       <use xlink:href="#WenQuanYiZenHei-30" x="59.960938"/>
       <use xlink:href="#WenQuanYiZenHei-30" x="119.921875"/>
      </g>
     </g>
    </g>
    <g id="xtick_5">
     <g id="line2d_9">
      <path d="M 385.525038 373.526999 
L 385.525038 10.628642 
" clip-path="url(#pa9bb91967b)" style="fill: none; stroke: #b0b0b0; stroke-width: 0.8; stroke-linecap: square"/>
     </g>
     <g id="line2d_10">
      <g>
       <use xlink:href="#mc402b6e42e" x="385.525038" y="373.526999" style="stroke: #000000; stroke-width: 0.8"/>
      </g>
     </g>
     <g id="text_5">
      <!-- 400 -->
      <g transform="translate(369.333475 392.868249) scale(0.18 -0.18)">
       <defs>
        <path id="WenQuanYiZenHei-34" d="M 3631 1025 
L 2913 1025 
L 2913 0 
L 2381 0 
L 2381 1025 
L 219 1025 
L 219 1388 
L 2225 4388 
L 2913 4388 
L 2913 1444 
L 3631 1444 
L 3631 1025 
z
M 2381 1444 
L 2381 3963 
L 788 1444 
L 2381 1444 
z
" transform="scale(0.015625)"/>
       </defs>
       <use xlink:href="#WenQuanYiZenHei-34"/>
       <use xlink:href="#WenQuanYiZenHei-30" x="59.960938"/>
       <use xlink:href="#WenQuanYiZenHei-30" x="119.921875"/>
      </g>
     </g>
    </g>
    <g id="xtick_6">
     <g id="line2d_11">
      <path d="M 461.935076 373.526999 
L 461.935076 10.628642 
" clip-path="url(#pa9bb91967b)" style="fill: none; stroke: #b0b0b0; stroke-width: 0.8; stroke-linecap: square"/>
     </g>
     <g id="line2d_12">
      <g>
       <use xlink:href="#mc402b6e42e" x="461.935076" y="373.526999" style="stroke: #000000; stroke-width: 0.8"/>
      </g>
     </g>
     <g id="text_6">
      <!-- 500 -->
      <g transform="translate(445.743513 392.868249) scale(0.18 -0.18)">
       <defs>
        <path id="WenQuanYiZenHei-35" d="M 3531 1488 
Q 3531 688 2913 250 
Q 2456 -63 1844 -63 
Q 1175 -63 706 350 
Q 413 613 306 975 
L 781 1131 
Q 1000 538 1569 406 
Q 1706 369 1856 369 
Q 2550 369 2850 869 
Q 3000 1131 3000 1494 
Q 3000 2056 2581 2356 
Q 2319 2538 1969 2538 
Q 1400 2538 1031 2075 
Q 981 2013 938 1938 
L 500 2031 
L 644 4388 
L 3244 4388 
L 3200 3919 
L 1044 3919 
L 950 2500 
Q 1431 2975 2006 2975 
Q 2713 2975 3163 2475 
Q 3531 2063 3531 1488 
z
" transform="scale(0.015625)"/>
       </defs>
       <use xlink:href="#WenQuanYiZenHei-35"/>
       <use xlink:href="#WenQuanYiZenHei-30" x="59.960938"/>
       <use xlink:href="#WenQuanYiZenHei-30" x="119.921875"/>
      </g>
     </g>
    </g>
    <g id="xtick_7">
     <g id="line2d_13">
      <path d="M 538.345114 373.526999 
L 538.345114 10.628642 
" clip-path="url(#pa9bb91967b)" style="fill: none; stroke: #b0b0b0; stroke-width: 0.8; stroke-linecap: square"/>
     </g>
     <g id="line2d_14">
      <g>
       <use xlink:href="#mc402b6e42e" x="538.345114" y="373.526999" style="stroke: #000000; stroke-width: 0.8"/>
      </g>
     </g>
     <g id="text_7">
      <!-- 600 -->
      <g transform="translate(522.153551 392.868249) scale(0.18 -0.18)">
       <defs>
        <path id="WenQuanYiZenHei-36" d="M 3550 1431 
Q 3550 725 3006 288 
Q 2581 -63 1994 -63 
Q 1013 -63 563 825 
Q 288 1363 288 2081 
Q 288 3294 856 3938 
Q 1319 4456 2075 4456 
Q 2969 4456 3363 3756 
Q 3431 3631 3481 3481 
L 2988 3350 
Q 2750 3994 2075 4006 
Q 1056 4006 844 2669 
Q 794 2356 794 1981 
L 806 1981 
Q 1006 2506 1544 2744 
Q 1819 2869 2119 2869 
Q 2788 2869 3213 2375 
Q 3550 1975 3550 1431 
z
M 3038 1406 
Q 3038 1906 2656 2213 
Q 2381 2431 2038 2431 
Q 1525 2431 1181 2044 
Q 919 1744 919 1356 
Q 919 881 1344 581 
Q 1631 375 1981 375 
Q 2519 375 2838 781 
Q 3038 1050 3038 1406 
z
" transform="scale(0.015625)"/>
       </defs>
       <use xlink:href="#WenQuanYiZenHei-36"/>
       <use xlink:href="#WenQuanYiZenHei-30" x="59.960938"/>
       <use xlink:href="#WenQuanYiZenHei-30" x="119.921875"/>
      </g>
     </g>
    </g>
    <g id="text_8">
     <!-- 仿真步/月 -->
     <g transform="translate(268.439219 414.640437) scale(0.18 -0.18)">
      <defs>
       <path id="WenQuanYiZenHei-4eff" d="M 5138 -44 
L 5138 2175 
L 3781 2175 
Q 3725 1075 3269 375 
Q 2856 -263 2244 -644 
Q 2106 -388 1825 -319 
Q 2506 0 2918 675 
Q 3331 1350 3331 2294 
L 3331 3369 
L 2956 3369 
Q 2594 3369 2231 3350 
Q 2250 3544 2231 3744 
Q 2594 3725 2956 3725 
L 5450 3725 
Q 5813 3725 6175 3744 
Q 6156 3544 6175 3350 
Q 5813 3369 5450 3369 
L 3781 3369 
L 3781 2531 
L 5588 2531 
L 5588 -175 
Q 5588 -425 5400 -600 
Q 5131 -831 4419 -825 
Q 4494 -513 4269 -275 
Q 4475 -300 4753 -303 
Q 5031 -306 5084 -265 
Q 5138 -225 5138 -44 
z
M 4213 3813 
Q 3856 4344 3431 4813 
L 3800 5150 
Q 4250 4650 4625 4088 
L 4213 3813 
z
M 2319 4919 
Q 2031 4006 1569 3219 
L 1569 94 
Q 1569 -381 1588 -850 
Q 1344 -825 1094 -850 
Q 1113 -381 1113 94 
L 1113 2550 
Q 794 2150 394 1819 
Q 250 2063 -13 2181 
Q 319 2438 613 2738 
Q 1131 3269 1369 3800 
Q 1619 4394 1788 5056 
Q 2031 4963 2319 4919 
z
" transform="scale(0.015625)"/>
       <path id="WenQuanYiZenHei-771f" d="M 744 400 
Q 431 400 119 381 
Q 138 550 119 725 
Q 431 706 744 706 
L 1413 706 
L 1406 3944 
L 2850 3944 
L 2850 4319 
L 1100 4319 
Q 788 4319 475 4306 
Q 494 4475 475 4644 
Q 788 4625 1100 4625 
L 2850 4625 
Q 2844 4938 2825 5256 
Q 3063 5231 3300 5256 
L 3275 4625 
L 5119 4625 
Q 5431 4625 5744 4644 
Q 5725 4475 5744 4306 
Q 5431 4319 5119 4319 
L 3275 4319 
L 3275 3944 
L 4806 3944 
L 4806 706 
L 5513 706 
Q 5819 706 6131 725 
Q 6119 550 6131 381 
Q 5825 400 5513 400 
L 4419 400 
Q 5106 -25 5750 -506 
L 5469 -888 
Q 4731 -338 3944 138 
L 4100 400 
L 2100 400 
Q 2213 288 2338 194 
Q 1619 -625 375 -1006 
Q 344 -781 188 -619 
Q 700 -481 1090 -234 
Q 1481 13 1881 400 
L 744 400 
z
M 4381 3200 
L 4381 3638 
L 1838 3638 
Q 1838 3431 1838 3200 
L 4381 3200 
z
M 4381 2394 
L 4381 2894 
L 1838 2894 
L 1838 2394 
L 4381 2394 
z
M 4381 1519 
L 4381 2088 
L 1838 2088 
L 1838 1519 
L 4381 1519 
z
M 4381 706 
L 4381 1213 
L 1838 1213 
L 1838 706 
L 4381 706 
z
" transform="scale(0.015625)"/>
       <path id="WenQuanYiZenHei-6b65" d="M 5369 1981 
Q 5581 1831 5819 1725 
Q 5038 313 3456 -313 
Q 2888 -531 2119 -753 
Q 1350 -975 931 -1013 
Q 663 -613 194 -494 
L 1244 -419 
Q 4263 -175 5369 1981 
z
M 1781 2031 
Q 1988 1888 2213 1794 
Q 1681 781 519 63 
Q 431 281 231 406 
Q 750 706 1097 1087 
Q 1444 1469 1781 2031 
z
M 3600 531 
Q 3356 563 3113 531 
Q 3131 988 3131 1438 
L 3131 2363 
L 1050 2363 
Q 700 2363 350 2350 
Q 369 2538 350 2725 
Q 700 2706 1050 2706 
L 1494 2706 
L 1494 3700 
Q 1494 4150 1475 4600 
Q 1719 4575 1963 4600 
Q 1944 4150 1944 3700 
L 1944 2706 
L 3144 2706 
L 3144 4350 
Q 3144 4800 3119 5256 
Q 3363 5231 3606 5256 
Q 3588 4800 3588 4350 
L 3588 4163 
L 4775 4163 
Q 5125 4163 5475 4181 
Q 5450 3994 5475 3806 
Q 5125 3819 4775 3819 
L 3588 3819 
L 3588 2706 
L 5438 2706 
Q 5788 2706 6138 2725 
Q 6119 2538 6138 2350 
Q 5788 2363 5438 2363 
L 3575 2363 
L 3575 1438 
Q 3575 988 3600 531 
z
" transform="scale(0.015625)"/>
       <path id="WenQuanYiZenHei-2f" d="M 3213 4388 
L 563 -1094 
L 138 -1094 
L 2775 4388 
L 3213 4388 
z
" transform="scale(0.015625)"/>
       <path id="WenQuanYiZenHei-6708" d="M 4519 206 
L 4519 1594 
L 2100 1594 
Q 2113 713 1694 84 
Q 1275 -544 631 -819 
Q 531 -544 269 -425 
Q 875 -263 1259 259 
Q 1644 781 1644 1525 
L 1638 4900 
L 4975 4900 
L 4975 44 
Q 4975 -400 4700 -563 
Q 4406 -738 3788 -731 
Q 3863 -413 3638 -169 
Q 3844 -194 4109 -197 
Q 4375 -200 4444 -147 
Q 4513 -94 4519 206 
z
M 4519 3406 
L 4519 4525 
L 2100 4525 
L 2100 3406 
L 4519 3406 
z
M 4519 1969 
L 4519 3031 
L 2100 3031 
L 2100 1969 
L 4519 1969 
z
" transform="scale(0.015625)"/>
      </defs>
      <use xlink:href="#WenQuanYiZenHei-4eff"/>
      <use xlink:href="#WenQuanYiZenHei-771f" x="100"/>
      <use xlink:href="#WenQuanYiZenHei-6b65" x="200"/>
      <use xlink:href="#WenQuanYiZenHei-2f" x="300"/>
      <use xlink:href="#WenQuanYiZenHei-6708" x="351.953125"/>
     </g>
    </g>
   </g>
   <g id="matplotlib.axis_2">
    <g id="ytick_1">
     <g id="line2d_15">
      <path d="M 56.961875 338.622746 
L 561.268125 338.622746 
" clip-path="url(#pa9bb91967b)" style="fill: none; stroke: #b0b0b0; stroke-width: 0.8; stroke-linecap: square"/>
     </g>
     <g id="line2d_16">
      <defs>
       <path id="mde7b7a5724" d="M 0 0 
L -3.5 0 
" style="stroke: #000000; stroke-width: 0.8"/>
      </defs>
      <g>
       <use xlink:href="#mde7b7a5724" x="56.961875" y="338.622746" style="stroke: #000000; stroke-width: 0.8"/>
      </g>
     </g>
     <g id="text_9">
      <!-- 20 -->
      <g transform="translate(28.373125 344.793371) scale(0.18 -0.18)">
       <use xlink:href="#WenQuanYiZenHei-32"/>
       <use xlink:href="#WenQuanYiZenHei-30" x="59.960938"/>
      </g>
     </g>
    </g>
    <g id="ytick_2">
     <g id="line2d_17">
      <path d="M 56.961875 284.414059 
L 561.268125 284.414059 
" clip-path="url(#pa9bb91967b)" style="fill: none; stroke: #b0b0b0; stroke-width: 0.8; stroke-linecap: square"/>
     </g>
     <g id="line2d_18">
      <g>
       <use xlink:href="#mde7b7a5724" x="56.961875" y="284.414059" style="stroke: #000000; stroke-width: 0.8"/>
      </g>
     </g>
     <g id="text_10">
      <!-- 25 -->
      <g transform="translate(28.373125 290.584684) scale(0.18 -0.18)">
       <use xlink:href="#WenQuanYiZenHei-32"/>
       <use xlink:href="#WenQuanYiZenHei-35" x="59.960938"/>
      </g>
     </g>
    </g>
    <g id="ytick_3">
     <g id="line2d_19">
      <path d="M 56.961875 230.205372 
L 561.268125 230.205372 
" clip-path="url(#pa9bb91967b)" style="fill: none; stroke: #b0b0b0; stroke-width: 0.8; stroke-linecap: square"/>
     </g>
     <g id="line2d_20">
      <g>
       <use xlink:href="#mde7b7a5724" x="56.961875" y="230.205372" style="stroke: #000000; stroke-width: 0.8"/>
      </g>
     </g>
     <g id="text_11">
      <!-- 30 -->
      <g transform="translate(28.373125 236.375997) scale(0.18 -0.18)">
       <use xlink:href="#WenQuanYiZenHei-33"/>
       <use xlink:href="#WenQuanYiZenHei-30" x="59.960938"/>
      </g>
     </g>
    </g>
    <g id="ytick_4">
     <g id="line2d_21">
      <path d="M 56.961875 175.996685 
L 561.268125 175.996685 
" clip-path="url(#pa9bb91967b)" style="fill: none; stroke: #b0b0b0; stroke-width: 0.8; stroke-linecap: square"/>
     </g>
     <g id="line2d_22">
      <g>
       <use xlink:href="#mde7b7a5724" x="56.961875" y="175.996685" style="stroke: #000000; stroke-width: 0.8"/>
      </g>
     </g>
     <g id="text_12">
      <!-- 35 -->
      <g transform="translate(28.373125 182.16731) scale(0.18 -0.18)">
       <use xlink:href="#WenQuanYiZenHei-33"/>
       <use xlink:href="#WenQuanYiZenHei-35" x="59.960938"/>
      </g>
     </g>
    </g>
    <g id="ytick_5">
     <g id="line2d_23">
      <path d="M 56.961875 121.787999 
L 561.268125 121.787999 
" clip-path="url(#pa9bb91967b)" style="fill: none; stroke: #b0b0b0; stroke-width: 0.8; stroke-linecap: square"/>
     </g>
     <g id="line2d_24">
      <g>
       <use xlink:href="#mde7b7a5724" x="56.961875" y="121.787999" style="stroke: #000000; stroke-width: 0.8"/>
      </g>
     </g>
     <g id="text_13">
      <!-- 40 -->
      <g transform="translate(28.373125 127.958624) scale(0.18 -0.18)">
       <use xlink:href="#WenQuanYiZenHei-34"/>
       <use xlink:href="#WenQuanYiZenHei-30" x="59.960938"/>
      </g>
     </g>
    </g>
    <g id="ytick_6">
     <g id="line2d_25">
      <path d="M 56.961875 67.579312 
L 561.268125 67.579312 
" clip-path="url(#pa9bb91967b)" style="fill: none; stroke: #b0b0b0; stroke-width: 0.8; stroke-linecap: square"/>
     </g>
     <g id="line2d_26">
      <g>
       <use xlink:href="#mde7b7a5724" x="56.961875" y="67.579312" style="stroke: #000000; stroke-width: 0.8"/>
      </g>
     </g>
     <g id="text_14">
      <!-- 45 -->
      <g transform="translate(28.373125 73.749937) scale(0.18 -0.18)">
       <use xlink:href="#WenQuanYiZenHei-34"/>
       <use xlink:href="#WenQuanYiZenHei-35" x="59.960938"/>
      </g>
     </g>
    </g>
    <g id="ytick_7">
     <g id="line2d_27">
      <path d="M 56.961875 13.370625 
L 561.268125 13.370625 
" clip-path="url(#pa9bb91967b)" style="fill: none; stroke: #b0b0b0; stroke-width: 0.8; stroke-linecap: square"/>
     </g>
     <g id="line2d_28">
      <g>
       <use xlink:href="#mde7b7a5724" x="56.961875" y="13.370625" style="stroke: #000000; stroke-width: 0.8"/>
      </g>
     </g>
     <g id="text_15">
      <!-- 50 -->
      <g transform="translate(28.373125 19.54125) scale(0.18 -0.18)">
       <use xlink:href="#WenQuanYiZenHei-35"/>
       <use xlink:href="#WenQuanYiZenHei-30" x="59.960938"/>
      </g>
     </g>
    </g>
    <g id="text_16">
     <!-- 消费品价格 -->
     <g transform="translate(21.383437 237.077821) rotate(-90) scale(0.18 -0.18)">
      <defs>
       <path id="WenQuanYiZenHei-6d88" d="M 5506 63 
L 5506 875 
L 3156 875 
L 3156 119 
Q 3156 -313 3175 -750 
Q 2944 -725 2706 -750 
Q 2725 -313 2725 119 
L 2731 3525 
L 4131 3525 
L 4131 4388 
Q 4131 4825 4106 5256 
Q 4344 5231 4575 5256 
Q 4556 4825 4556 4388 
L 4556 3525 
L 5938 3525 
L 5938 -119 
Q 5938 -500 5669 -650 
Q 5388 -800 4825 -794 
Q 4894 -494 4688 -275 
Q 4881 -294 5137 -297 
Q 5394 -300 5450 -253 
Q 5506 -206 5506 63 
z
M 5625 4994 
Q 5813 4856 6031 4763 
Q 5694 4169 5106 3606 
Q 4981 3794 4763 3863 
Q 5081 4150 5375 4606 
L 5625 4994 
z
M 3413 3656 
Q 3006 4169 2538 4619 
L 2863 4963 
Q 3356 4488 3781 3950 
L 3413 3656 
z
M 5506 2350 
L 5506 3219 
L 3156 3219 
L 3156 2350 
L 5506 2350 
z
M 5506 1181 
L 5506 2044 
L 3156 2044 
L 3156 1181 
L 5506 1181 
z
M 938 -738 
Q 681 -588 294 -575 
Q 569 -69 859 581 
Q 1150 1231 1706 2838 
L 1963 2706 
L 1244 338 
L 938 -738 
z
M 1431 2856 
L 1038 2550 
L 106 3400 
L 500 3713 
L 1431 2856 
z
M 1550 3913 
Q 1113 4388 606 4800 
L 981 5125 
Q 1519 4688 1975 4188 
L 1550 3913 
z
" transform="scale(0.015625)"/>
       <path id="WenQuanYiZenHei-8d39" d="M 5338 -825 
Q 4438 -50 3313 338 
L 3469 794 
Q 4681 375 5650 -463 
L 5338 -825 
z
M 2875 881 
Q 2894 1319 2856 1706 
Q 3094 1681 3331 1706 
Q 3300 1319 3313 881 
Q 3313 588 3134 322 
Q 2956 56 2681 -131 
Q 2406 -319 2063 -469 
Q 1456 -731 769 -831 
Q 725 -538 463 -406 
Q 1338 -319 2106 34 
Q 2875 388 2875 881 
z
M 1781 138 
Q 1544 163 1306 138 
Q 1325 581 1325 1019 
L 1325 1963 
Q 950 1819 569 1763 
Q 525 2050 281 2194 
Q 800 2225 1325 2444 
Q 1850 2663 2119 2988 
L 706 2988 
L 700 4013 
L 2338 4013 
L 2338 4425 
L 1181 4425 
Q 863 4425 538 4413 
Q 556 4588 538 4763 
Q 863 4744 1181 4744 
L 2331 4744 
Q 2325 4994 2313 5244 
Q 2550 5219 2794 5244 
Q 2781 4994 2775 4744 
L 3713 4744 
Q 3706 5000 3694 5256 
Q 3931 5231 4175 5256 
Q 4163 5000 4156 4744 
L 5613 4744 
L 5613 3694 
L 4150 3694 
L 4150 3306 
L 6075 3306 
L 6075 2556 
Q 6075 2363 5831 2200 
Q 5588 2038 5056 2025 
L 5056 319 
L 4619 319 
L 4619 1831 
L 1763 1831 
L 1763 1019 
Q 1763 581 1781 138 
z
M 4175 2294 
Q 3931 2319 3694 2294 
Q 3713 2644 3713 2988 
L 2631 2988 
Q 2375 2506 1731 2150 
L 4963 2150 
Q 4969 2388 4806 2556 
Q 5000 2531 5306 2528 
Q 5613 2525 5625 2544 
Q 5638 2563 5638 2588 
L 5638 2988 
L 4150 2988 
Q 4156 2644 4175 2294 
z
M 3719 3306 
L 3719 3694 
L 2769 3694 
Q 2781 3488 2744 3306 
L 3719 3306 
z
M 2300 3306 
Q 2350 3481 2338 3694 
L 1138 3694 
L 1138 3306 
L 2300 3306 
z
M 4150 4013 
L 5181 4013 
L 5181 4425 
L 4150 4425 
L 4150 4013 
z
M 3719 4013 
L 3719 4425 
L 2769 4425 
L 2769 4013 
L 3719 4013 
z
" transform="scale(0.015625)"/>
       <path id="WenQuanYiZenHei-54c1" d="M 4025 -769 
Q 3788 -744 3544 -769 
Q 3569 -331 3569 113 
L 3569 2106 
L 5925 2106 
L 5925 -756 
L 5488 -756 
L 5488 -288 
L 4006 -288 
Q 4013 -531 4025 -769 
z
M 781 -769 
Q 544 -744 306 -769 
Q 325 -331 325 113 
L 325 2106 
L 2681 2106 
L 2681 -756 
L 2250 -756 
L 2250 -288 
L 763 -288 
Q 769 -531 781 -769 
z
M 1913 2588 
L 1481 2588 
L 1481 5075 
L 4938 5069 
L 4938 2588 
L 4506 2588 
L 4506 2944 
L 1913 2944 
L 1913 2588 
z
M 5488 1788 
L 4000 1788 
L 4000 31 
L 5488 31 
L 5488 1788 
z
M 2250 1788 
L 763 1788 
L 763 31 
L 2250 31 
L 2250 1788 
z
M 4506 4750 
L 1913 4750 
L 1913 3263 
L 4506 3263 
L 4506 4750 
z
" transform="scale(0.015625)"/>
       <path id="WenQuanYiZenHei-4ef7" d="M 4931 -769 
Q 4688 -744 4438 -769 
Q 4463 -313 4463 144 
L 4463 1888 
Q 4463 2344 4438 2806 
Q 4688 2781 4931 2806 
Q 4913 2344 4913 1888 
L 4913 144 
Q 4913 -313 4931 -769 
z
M 3025 956 
L 3025 1875 
Q 3025 2331 3006 2788 
Q 3256 2763 3500 2788 
Q 3481 2331 3481 1875 
L 3481 956 
Q 3481 338 3068 -156 
Q 2656 -650 2075 -831 
Q 2013 -563 1775 -413 
Q 2294 -331 2659 59 
Q 3025 450 3025 956 
z
M 6163 2794 
Q 5931 2656 5844 2400 
Q 5281 2613 4750 3094 
Q 4219 3575 3919 4219 
Q 3050 2600 1638 1881 
Q 1544 2144 1313 2300 
Q 2188 2713 2841 3438 
Q 3494 4163 3738 5125 
Q 3988 5013 4256 4950 
Q 4206 4831 4156 4719 
Q 4475 3756 5238 3256 
Q 5656 2969 6163 2794 
z
M 2213 4919 
Q 1944 4006 1500 3219 
L 1500 94 
Q 1500 -381 1519 -850 
Q 1281 -825 1044 -850 
Q 1063 -381 1063 94 
L 1063 2550 
Q 756 2150 381 1819 
Q 238 2063 -13 2181 
Q 306 2438 581 2738 
Q 1081 3269 1306 3800 
Q 1544 4394 1706 5056 
Q 1944 4963 2213 4919 
z
" transform="scale(0.015625)"/>
       <path id="WenQuanYiZenHei-683c" d="M 3494 -769 
Q 3263 -744 3025 -769 
Q 3044 -331 3044 100 
L 3044 1344 
Q 2838 1256 2619 1188 
Q 2488 1413 2281 1575 
Q 3319 1800 4056 2563 
Q 3700 3063 3494 3688 
Q 3250 3219 2900 2719 
Q 2738 2875 2513 2906 
Q 2856 3375 3087 3875 
Q 3319 4375 3556 5131 
Q 3775 5044 4013 5006 
Q 3913 4625 3788 4319 
L 5400 4319 
Q 5219 3319 4588 2531 
Q 5200 1894 6138 1769 
Q 5944 1594 5913 1344 
Q 5000 1494 4325 2231 
Q 3788 1675 3088 1363 
L 5419 1363 
L 5419 -756 
L 4994 -756 
L 4994 -338 
L 3481 -338 
Q 3488 -556 3494 -769 
z
M 4994 1056 
L 3475 1056 
L 3475 -31 
L 4994 -31 
L 4994 1056 
z
M 3806 4006 
Q 3988 3344 4313 2869 
Q 4700 3381 4881 4006 
L 3806 4006 
z
M 394 263 
Q 231 431 -25 469 
Q 181 825 443 1337 
Q 706 1850 887 2406 
Q 1069 2963 1206 3519 
L 800 3519 
Q 488 3519 181 3500 
Q 200 3700 181 3900 
Q 488 3881 800 3881 
L 1313 3881 
L 1313 4263 
Q 1313 4719 1294 5175 
Q 1500 5150 1713 5175 
Q 1694 4719 1694 4263 
L 1694 3881 
L 2431 3900 
Q 2413 3700 2431 3500 
L 1694 3519 
L 1694 2738 
L 1863 2881 
Q 2219 2300 2519 1650 
L 2150 1413 
Q 2006 1725 1850 2019 
L 1694 2300 
L 1694 69 
Q 1694 -388 1713 -850 
Q 1500 -825 1294 -850 
Q 1313 -388 1313 69 
L 1313 2438 
Q 888 1144 394 263 
z
" transform="scale(0.015625)"/>
      </defs>
      <use xlink:href="#WenQuanYiZenHei-6d88"/>
      <use xlink:href="#WenQuanYiZenHei-8d39" x="100"/>
      <use xlink:href="#WenQuanYiZenHei-54c1" x="200"/>
      <use xlink:href="#WenQuanYiZenHei-4ef7" x="300"/>
      <use xlink:href="#WenQuanYiZenHei-683c" x="400"/>
     </g>
    </g>
   </g>
   <g id="line2d_29">
    <path d="M 79.884886 317.887342 
L 81.413087 317.887342 
L 82.177187 326.708802 
L 82.941288 328.355437 
L 83.705388 328.585497 
L 84.469489 338.144998 
L 85.233589 344.349271 
L 85.997689 352.05109 
L 86.76179 353.386847 
L 87.52589 355.056198 
L 88.289991 357.031619 
L 89.054091 349.841418 
L 89.818191 345.682169 
L 90.582292 344.628528 
L 91.346392 342.384273 
L 92.110492 337.015938 
L 92.874593 326.35027 
L 93.638693 325.370791 
L 95.166894 307.303677 
L 95.930994 293.862097 
L 96.695095 283.30109 
L 97.459195 277.99973 
L 98.223295 271.913506 
L 98.987396 260.880705 
L 99.751496 251.553366 
L 100.515597 235.328381 
L 101.279697 230.957586 
L 102.043797 217.546639 
L 102.807898 199.464602 
L 103.571998 190.236196 
L 104.336098 188.582746 
L 105.100199 178.650156 
L 105.864299 177.009602 
L 106.6284 173.652987 
L 108.1566 142.289617 
L 108.920701 137.075426 
L 109.684801 135.534176 
L 111.213002 131.70089 
L 111.977102 122.374547 
L 112.741203 119.283773 
L 115.033504 102.146773 
L 115.797604 93.386655 
L 116.561705 89.318899 
L 118.089905 79.444055 
L 118.854006 78.557784 
L 119.618106 76.410956 
L 120.382206 73.405946 
L 121.146307 73.181339 
L 121.910407 72.823038 
L 122.674508 71.887677 
L 124.202708 72.070841 
L 124.966809 72.132169 
L 126.495009 76.738511 
L 127.25911 77.150777 
L 128.02321 78.878278 
L 128.787311 87.945483 
L 129.551411 94.813719 
L 130.315511 103.780969 
L 131.079612 109.144007 
L 133.371913 139.61837 
L 134.136013 143.33969 
L 134.900114 161.704511 
L 135.664214 168.238773 
L 136.428314 173.132416 
L 137.192415 175.959834 
L 137.956515 190.6965 
L 138.720616 203.016151 
L 139.484716 211.032774 
L 140.248816 217.178757 
L 141.012917 219.194261 
L 141.777017 230.193938 
L 142.541117 233.09619 
L 143.305218 239.476544 
L 144.069318 243.77164 
L 144.833419 246.540215 
L 145.597519 248.546161 
L 146.361619 246.474835 
L 147.12572 245.85336 
L 147.88982 243.086856 
L 149.418021 233.835604 
L 150.946222 228.245221 
L 151.710322 224.119595 
L 152.474422 221.135195 
L 153.238523 219.511406 
L 154.002623 214.330043 
L 154.766723 207.056956 
L 155.530824 202.049262 
L 156.294924 201.957198 
L 157.059025 195.050745 
L 157.823125 186.484818 
L 159.351326 171.80488 
L 160.115426 170.323981 
L 161.643627 158.330064 
L 162.407727 156.063455 
L 163.171828 152.147278 
L 163.935928 147.06419 
L 164.700028 144.857904 
L 165.464129 143.171808 
L 166.228229 138.948477 
L 167.75643 139.384516 
L 168.52053 139.641022 
L 169.284631 138.260622 
L 170.048731 137.585295 
L 170.812831 136.759138 
L 171.576932 141.557077 
L 172.341032 143.873165 
L 173.105133 148.60513 
L 173.869233 151.933745 
L 175.397434 161.454741 
L 176.161534 162.604815 
L 176.925634 167.198463 
L 177.689735 172.647166 
L 178.453835 172.948477 
L 179.217936 176.511241 
L 179.982036 179.455117 
L 180.746136 179.328326 
L 182.274337 178.778248 
L 184.566638 178.724556 
L 185.330739 177.214211 
L 186.858939 175.764946 
L 187.62304 174.266653 
L 188.38714 171.888101 
L 189.151241 171.534511 
L 189.915341 170.990828 
L 190.679441 170.036714 
L 191.443542 166.808347 
L 192.207642 162.066486 
L 192.971742 159.511646 
L 193.735843 155.386559 
L 194.499943 153.465716 
L 195.264044 152.234397 
L 196.028144 151.362558 
L 196.792244 150.893318 
L 197.556345 149.49019 
L 198.320445 149.050107 
L 199.084545 147.832462 
L 200.612746 147.039596 
L 201.376847 145.404854 
L 202.140947 145.166585 
L 203.669148 144.22223 
L 204.433248 140.708456 
L 205.197348 139.271174 
L 205.961449 137.39433 
L 206.725549 136.469121 
L 207.48965 136.451464 
L 208.25375 135.293381 
L 209.781951 132.222749 
L 210.546051 131.201805 
L 211.310152 131.057196 
L 212.074252 129.614448 
L 212.838352 122.279072 
L 213.602453 118.780724 
L 215.130653 113.950888 
L 215.894754 113.191874 
L 216.658854 108.325586 
L 217.422955 107.707065 
L 218.187055 104.65468 
L 218.951155 103.211628 
L 219.715256 102.206287 
L 220.479356 101.528796 
L 221.243456 101.219443 
L 222.007557 100.570594 
L 222.771657 98.314158 
L 223.535758 97.052574 
L 224.299858 96.35558 
L 225.063958 95.999409 
L 225.828059 95.257812 
L 227.356259 95.418854 
L 228.12036 95.708229 
L 228.88446 95.663788 
L 229.648561 94.585343 
L 230.412661 94.3579 
L 231.176761 94.643459 
L 232.704962 95.658228 
L 234.997263 96.134499 
L 237.289564 90.975597 
L 238.053665 91.952074 
L 238.817765 96.823681 
L 239.581866 98.731803 
L 240.345966 99.711711 
L 241.110066 100.029171 
L 241.874167 100.151184 
L 244.166468 99.261387 
L 245.694669 96.32526 
L 246.458769 95.987933 
L 247.222869 93.451675 
L 247.98697 93.41874 
L 248.75107 92.281406 
L 249.51517 87.209479 
L 250.279271 86.710848 
L 251.043371 83.921107 
L 251.807472 82.407292 
L 252.571572 80.360179 
L 253.335672 76.358439 
L 254.099773 73.244817 
L 254.863873 72.130129 
L 255.627973 70.293176 
L 256.392074 64.643748 
L 257.156174 62.797382 
L 257.920275 57.028325 
L 259.448475 55.622988 
L 260.212576 55.545086 
L 260.976676 55.300102 
L 261.740777 55.238036 
L 262.504877 54.847458 
L 263.268977 52.75422 
L 264.797178 49.333414 
L 265.561278 49.15967 
L 266.325379 48.811481 
L 267.089479 48.120011 
L 267.85358 48.430954 
L 268.61768 49.237184 
L 269.38178 50.383169 
L 270.145881 50.840858 
L 270.909981 52.950102 
L 271.674081 54.498092 
L 273.202282 65.054875 
L 273.966383 66.596566 
L 274.730483 74.950429 
L 275.494583 77.20727 
L 276.258684 79.101389 
L 277.022784 87.599099 
L 277.786884 93.644279 
L 278.550985 96.926986 
L 279.315085 107.334427 
L 280.843286 118.279473 
L 281.607386 121.452471 
L 283.135587 125.021389 
L 283.899687 132.058164 
L 284.663788 137.186601 
L 285.427888 143.521763 
L 287.720189 164.268886 
L 288.48429 162.757249 
L 289.24839 159.798185 
L 290.012491 155.667011 
L 290.776591 154.633162 
L 291.540691 152.847585 
L 292.304792 148.7117 
L 293.832992 130.62157 
L 294.597093 129.023873 
L 295.361193 125.752585 
L 296.125294 124.304227 
L 296.889394 116.238662 
L 297.653494 109.910941 
L 298.417595 101.076442 
L 299.181695 97.860762 
L 299.945795 92.903352 
L 301.473996 77.523254 
L 302.238097 71.34689 
L 303.002197 69.497999 
L 303.766297 60.279232 
L 304.530398 58.066931 
L 305.294498 50.54936 
L 306.058598 48.927034 
L 306.822699 46.43128 
L 308.3509 39.55647 
L 309.115 37.915734 
L 309.8791 35.366378 
L 311.407301 32.408034 
L 312.171402 28.984543 
L 312.935502 27.124022 
L 313.699602 29.769581 
L 314.463703 33.443269 
L 315.227803 36.53378 
L 315.991903 37.680009 
L 316.756004 40.785084 
L 317.520104 50.967641 
L 318.284205 64.369235 
L 319.048305 66.89619 
L 320.576506 74.010857 
L 321.340606 82.251933 
L 322.104706 87.527914 
L 323.632907 112.185176 
L 324.397008 118.965154 
L 325.161108 123.095719 
L 325.925208 131.586739 
L 326.689309 132.532047 
L 327.453409 139.749887 
L 328.217509 142.74342 
L 328.98161 144.180836 
L 329.74571 142.721666 
L 330.509811 142.230073 
L 331.273911 140.070101 
L 332.038011 137.19575 
L 332.802112 134.979942 
L 333.566212 133.693272 
L 334.330312 132.163754 
L 335.094413 128.121956 
L 335.858513 127.425941 
L 336.622614 125.640848 
L 337.386714 121.546739 
L 338.150814 116.026109 
L 338.914915 114.734469 
L 339.679015 112.923327 
L 340.443116 109.60421 
L 341.207216 102.151222 
L 341.971316 90.777987 
L 342.735417 81.624548 
L 343.499517 74.360269 
L 344.263617 64.455281 
L 345.027718 58.189656 
L 345.791818 54.63891 
L 346.555919 49.323735 
L 347.320019 46.17283 
L 348.084119 47.175468 
L 348.84822 48.368988 
L 349.61232 49.098342 
L 350.37642 49.359703 
L 351.904621 52.904246 
L 352.668722 62.778682 
L 354.196922 70.107309 
L 355.725123 90.731183 
L 356.489223 99.167859 
L 357.253324 99.360056 
L 358.781525 108.373942 
L 359.545625 110.484899 
L 360.309725 112.249686 
L 361.073826 113.374202 
L 361.837926 111.165307 
L 363.366127 107.608523 
L 365.658428 107.186963 
L 366.422528 99.587957 
L 367.186629 93.523339 
L 367.950729 93.247018 
L 368.71483 92.171012 
L 369.47893 91.703201 
L 370.24303 89.256245 
L 371.771231 87.521924 
L 372.535331 87.247847 
L 374.827633 87.309105 
L 375.591733 79.656514 
L 376.355833 74.635106 
L 377.119934 68.416473 
L 378.648134 68.067957 
L 379.412235 67.312611 
L 380.176335 71.755961 
L 380.940436 73.478022 
L 381.704536 73.751869 
L 382.468636 77.147291 
L 383.232737 77.241288 
L 384.760937 80.201335 
L 385.525038 80.586555 
L 386.289138 81.537968 
L 387.817339 82.244554 
L 388.581439 82.595072 
L 389.34554 83.757811 
L 390.10964 85.24233 
L 390.873741 90.117527 
L 391.637841 91.113057 
L 393.166042 112.637191 
L 394.694242 125.732595 
L 395.458343 126.895158 
L 396.986544 147.346329 
L 397.750644 155.483754 
L 398.514744 164.881858 
L 399.278845 167.136996 
L 400.807045 188.111886 
L 401.571146 190.025915 
L 402.335246 195.843385 
L 403.099347 197.745462 
L 403.863447 198.431683 
L 404.627547 198.581221 
L 405.391648 199.734873 
L 406.155748 200.160483 
L 406.919848 203.454744 
L 407.683949 201.554263 
L 408.448049 197.802807 
L 409.21215 196.45511 
L 409.97625 194.673059 
L 411.504451 188.038096 
L 412.268551 177.628963 
L 415.324953 144.802386 
L 416.089053 141.325965 
L 416.853153 132.836669 
L 417.617254 120.651263 
L 418.381354 111.861943 
L 419.145455 110.690126 
L 420.673655 102.498628 
L 422.965956 103.17268 
L 425.258258 103.506108 
L 426.022358 109.818817 
L 426.786458 117.358325 
L 427.550559 118.565325 
L 428.314659 129.017844 
L 429.078759 142.182392 
L 429.84286 146.972771 
L 430.60696 155.20029 
L 431.371061 155.660984 
L 432.135161 161.596127 
L 432.899261 163.0961 
L 433.663362 168.704769 
L 434.427462 173.417561 
L 435.191562 174.164979 
L 435.955663 174.264775 
L 436.719763 174.827339 
L 438.247964 175.22687 
L 439.012064 175.424035 
L 439.776165 175.398022 
L 440.540265 174.384012 
L 441.304366 173.162518 
L 442.068466 169.473599 
L 442.832566 168.101796 
L 443.596667 166.061846 
L 445.124867 160.622274 
L 445.888968 160.554562 
L 446.653068 158.898695 
L 447.417169 157.871983 
L 448.181269 156.037027 
L 448.945369 152.200534 
L 449.70947 150.270703 
L 450.47357 149.855563 
L 451.23767 149.599291 
L 452.001771 145.065328 
L 452.765871 141.225028 
L 453.529972 136.252196 
L 454.294072 128.38687 
L 455.058172 124.162333 
L 455.822273 124.382608 
L 456.586373 124.46977 
L 457.350473 124.681428 
L 458.114574 121.059319 
L 458.878674 120.597959 
L 459.642775 120.556257 
L 461.170975 119.787325 
L 461.935076 119.612556 
L 464.991477 120.555961 
L 465.755578 123.047202 
L 466.519678 123.135353 
L 468.047879 119.137097 
L 468.811979 116.558413 
L 469.57608 117.301921 
L 470.34018 117.337872 
L 471.10428 117.729867 
L 472.632481 133.129439 
L 473.396581 137.137812 
L 474.160682 137.810837 
L 474.924782 141.123391 
L 476.452983 151.307905 
L 477.217083 156.952649 
L 477.981184 160.62802 
L 478.745284 167.116106 
L 480.273485 173.784261 
L 481.037585 175.15425 
L 481.801686 178.127 
L 482.565786 182.865053 
L 484.858087 174.138233 
L 485.622187 173.878779 
L 486.386288 171.192937 
L 487.914489 162.415993 
L 488.678589 157.034276 
L 490.20679 155.443004 
L 490.97089 151.269493 
L 491.734991 149.923944 
L 493.263191 143.390682 
L 494.027292 143.319415 
L 494.791392 139.019455 
L 495.555492 138.368314 
L 496.319593 136.761857 
L 497.083693 130.333944 
L 497.847794 129.335267 
L 498.611894 122.026786 
L 499.375994 121.548891 
L 500.140095 119.164397 
L 500.904195 113.826531 
L 501.668295 112.773843 
L 502.432396 110.785138 
L 503.196496 106.831395 
L 504.724697 95.423615 
L 505.488797 91.348956 
L 507.016998 88.581387 
L 507.781098 88.046865 
L 509.309299 87.665921 
L 510.0734 86.528133 
L 510.8375 87.506762 
L 511.6016 89.355053 
L 512.365701 90.54212 
L 513.129801 88.974777 
L 513.893902 86.554732 
L 514.658002 86.246004 
L 516.186203 91.03396 
L 516.950303 93.353823 
L 517.714403 94.14487 
L 518.478504 96.798232 
L 519.242604 97.894171 
L 520.006705 101.687722 
L 520.770805 104.175338 
L 521.534905 108.912736 
L 522.299006 110.249171 
L 523.063106 112.268942 
L 523.827206 115.084012 
L 525.355407 122.650193 
L 526.119508 122.974469 
L 526.883608 125.228067 
L 527.647708 131.454194 
L 528.411809 135.57551 
L 529.175909 138.270561 
L 529.940009 141.732628 
L 530.70411 143.755654 
L 531.46821 142.092778 
L 532.232311 138.756892 
L 533.760511 138.638827 
L 535.288712 138.601927 
L 536.052812 137.048247 
L 536.816913 133.324413 
L 537.581013 131.945251 
L 538.345114 128.821342 
L 538.345114 128.821342 
" clip-path="url(#pa9bb91967b)" style="fill: none; stroke: #1f77b4; stroke-width: 1.5; stroke-linecap: square"/>
   </g>
   <g id="patch_3">
    <path d="M 56.961875 373.526999 
L 56.961875 10.628642 
" style="fill: none; stroke: #000000; stroke-width: 0.8; stroke-linejoin: miter; stroke-linecap: square"/>
   </g>
   <g id="patch_4">
    <path d="M 561.268125 373.526999 
L 561.268125 10.628642 
" style="fill: none; stroke: #000000; stroke-width: 0.8; stroke-linejoin: miter; stroke-linecap: square"/>
   </g>
   <g id="patch_5">
    <path d="M 56.961875 373.526999 
L 561.268125 373.526999 
" style="fill: none; stroke: #000000; stroke-width: 0.8; stroke-linejoin: miter; stroke-linecap: square"/>
   </g>
   <g id="patch_6">
    <path d="M 56.961875 10.628642 
L 561.268125 10.628642 
" style="fill: none; stroke: #000000; stroke-width: 0.8; stroke-linejoin: miter; stroke-linecap: square"/>
   </g>
  </g>
 </g>
 <defs>
  <clipPath id="pa9bb91967b">
   <rect x="56.961875" y="10.628642" width="504.30625" height="362.898357"/>
  </clipPath>
 </defs>
</svg>
